<?xml version="1.0" encoding="UTF-8"?>
<svg id="Layer_1" xmlns="http://www.w3.org/2000/svg" version="1.1" viewBox="0 0 594.2 276.7">
  <!-- Generator: Adobe Illustrator 29.6.1, SVG Export Plug-In . SVG Version: 2.1.1 Build 9)  -->
  <defs>
    <style>
      .st0 {
        fill: #e31e24;
      }

      .st1, .st2, .st3 {
        fill: #231f20;
      }

      .st4 {
        fill: #272425;
      }

      .st5, .st6, .st7, .st2, .st8, .st3 {
        isolation: isolate;
      }

      .st6 {
        font-size: 48.6px;
      }

      .st6, .st9, .st7 {
        fill: #e31b23;
      }

      .st6, .st7 {
        font-family: Arial-BoldMT, Arial;
        font-weight: 700;
      }

      .st10 {
        fill: #272324;
      }

      .st11, .st8 {
        fill: #fff;
      }

      .st7 {
        font-size: 102.5px;
      }

      .st2 {
        font-size: 39.8px;
      }

      .st2, .st8, .st3 {
        font-family: ArialNarrow, 'Arial Narrow';
      }

      .st8 {
        font-size: 83.7px;
      }

      .st3 {
        font-size: 68.8px;
      }
    </style>
  </defs>
  <g id="Layer_11" data-name="Layer_1">
    <g id="Layer_0_Image">
      <path class="st10" d="M-852.3-2232.5c-9.1,5.7-14.2,13.9-16.8,23.8h-95c-3.8,0-7.5.4-10.8,2.5-2.9,1.8-4.4,4.4-4.3,7.8,0,1.7,0,3.5.6,5.2,1,3.4,3.9,4.9,7.1,5.4,4,.6,8,1.2,12,1.2,13.9.2,27.8,0,41.7.3,7.4.1,14.8.6,22.2,1.2,5.5.5,10.9,1.5,16.2,3.5,8.5,3.2,13.2,9.3,14.8,18.1,1.6,8.3,1.5,16.6.8,24.9-.4,4-1.2,7.9-2.8,11.7-2.6,5.8-7.3,9.4-13.2,11.4-5.3,1.8-10.8,2.9-16.5,2.9h-152c1.2-2.1,2.2-4.2,3.3-6.2,2.9-5.5,5.9-11,8.8-16.5.5-.9,1-1.1,1.9-1.1h117.2c3.5,0,7,0,10.4-1.2,4.2-1.4,6.4-4.3,6.8-8.6,0-1.3.2-2.7,0-4.1-.7-4.4-3.1-7-7.9-7.8-4.4-.7-8.9-1.3-13.4-1.4-14.4-.3-28.8-.2-43.2-.6-7.4-.2-14.9-.7-22.3-1.4-5.6-.6-11.2-1.7-16.3-4.2-4.9-2.4-8.3-6.2-9.8-11.5,0-.5,0-1.2,0-1.7,8.3-15.6,16.7-31.1,25-46.6,1.1-2,2.1-4,3.2-6,.2-.3.8-.5,1.2-.7h130.7l.3-.3Z"/>
      <path class="st10" d="M-1109-2112.8h-174.7v-119.6h109.5c.4,0,1.1.3,1.3.6,4.5,8.3,9,16.7,13.5,25.1,0,0,0,.2.2.4h-89.2v21.6h60.8v23.1h-60.7v21.7h123.4c1.1,0,1.6.3,2.1,1.2,4.4,8.4,9,16.7,13.5,25.1,0,.2.2.5.4.8h-.1Z"/>
      <path class="st10" d="M-708-2141.6v28.9h-123.3c-4.1,0-7.9-.7-11.6-2.2-6.2-2.4-11.4-6-15.2-11.5-.5-.7-.6-1.3-.4-2.2,1.5-5,2.2-10.2,2.2-15.4s0-9.2-.3-13.8c-.5-7.2-1.9-14.3-6.5-20.1-1.6-2.1-2.1-4.1-2-6.5.2-3.8,0-7.7.2-11.5.4-6.9,1.6-13.6,4.9-19.7,4.2-8,11.1-12.8,19.4-15.5,2.6-.8,5.1-1.3,7.8-1.3h124.7v28.9h-96c-3.5,0-6.9.4-10.3,1.3-6.5,1.8-10.3,6.1-11.6,12.6-.6,2.9-.9,5.8-.9,8.8,0,6.1-.2,12.2,0,18.3,0,3.3.6,6.7,1.4,9.9,1.3,5.8,5.3,9.1,11.1,10.2,2.9.5,5.9.8,8.9.8h97.5Z"/>
      <path class="st4" d="M-1070.7-2129.2c-.8-2.6-1.7-5-2.3-7.5-1.6-6.3-.8-12.3,2.5-18.1,2-3.6,4.9-6.3,7.8-9,3.9-3.7,7.9-7.5,10.9-12.1,3.5-5.3,5.6-11.1,6.1-17.3.3-3.1.5-6.1.7-9.2v-.5c-.7-2.4.5-4.3,1.6-6.2,4.2-7.5,8.4-15.1,12.6-22.6.2-.4.7-.8,1.1-.8h37.9c-.9,1.7-1.8,3.4-2.7,5-20.3,37.9-40.7,75.7-61,113.6-.5.9-1,1.2-2,1.2h-42.4c-.8,0-1.2-.2-1.6-1-17.5-32.7-35.1-65.3-52.6-97.9-3.7-6.9-7.4-13.8-11.2-20.8h37.5c.8,0,1.2.2,1.5.9,5.3,10.1,10.6,20.1,15.8,30.2.2.5.4,1.1.4,1.6-1.1,12.5,1.2,24.4,6.6,35.7,7.1,14.9,18.3,26.1,32.1,34.7,0,0,.3.1.6.2h0Z"/>
      <path class="st0" d="M-1077.2-2138c-5.4-4.3-10-9.4-14-15-6.5-9.1-10.8-19.2-12.6-30.2-2.3-14.2,0-27.6,8.7-39.4,3.2-4.3,7-8.2,10.7-12.1,3.6-3.8,6.9-7.7,8.4-12.9,1.2-3.8,1.5-7.7.9-11.7v-.6c2,3.2,4,6.1,5.8,9.1,2.2,3.6,4.3,7.2,5.4,11.4,1.9,7.5.6,14.5-3.1,21.2-2.6,4.8-6.2,8.9-10.1,12.7-4.2,4-8.3,8.2-11.3,13.3-3.4,5.8-4.1,12-2.8,18.5.3,1.5.7,3,1.1,4.5,0,.5.3.9.5,1.3.4-3.4.7-6.9,1.3-10.4,1-5.4,3.8-9.8,7.5-13.8,4-4.3,8.1-8.5,12.1-12.8,5.1-5.5,8.4-11.9,9.2-19.4.3-2.6,0-5.3,0-8.1.8,1.6,1.6,3.2,2.3,4.8,3.2,7,5.6,14.4,6.8,22,1.7,11-.7,20.9-8,29.3-3.4,3.9-7.1,7.5-10.7,11.2-2.4,2.5-4.7,5.1-6.2,8.3-2.7,5.6-3.3,11.4-2.1,17.5,0,.4.2.8.2,1.2,0,0,0,.1-.2.2h.2Z"/>
      <path class="st0" d="M-1077-2138.2c0,.1,0,.3,0,.4,0,0-.2-.1-.3-.2,0,0,0-.1.2-.2h0Z"/>
      <g class="st5">
        <g class="st5">
          <text class="st2" transform="translate(-1285.8 -2066.8) scale(.9 1)"><tspan x="0" y="0">Evansville</tspan></text>
        </g>
        <g class="st5">
          <text class="st2" transform="translate(-1142.4 -2066.8) scale(.9 1)"><tspan x="0" y="0">V</tspan></text>
        </g>
        <g class="st5">
          <text class="st2" transform="translate(-1124.6 -2066.8) scale(.9 1)"><tspan x="0" y="0">anderburgh School Corporation</tspan></text>
        </g>
      </g>
      <path class="st10" d="M-1021.3-385.9c-15.8,9.9-24.7,24-29.1,41.2h-164.4c-6.5,0-13,.7-18.7,4.3-5,3.1-7.6,7.6-7.4,13.4,0,3,.2,6.1,1,9,1.8,5.9,6.8,8.4,12.4,9.3,6.9,1.1,13.8,2,20.8,2.1,24.1.4,48.2.2,72.2.6,12.8.2,25.7,1,38.5,2.1,9.5.8,18.9,2.6,28,6,14.7,5.5,22.8,16.2,25.7,31.3,2.7,14.3,2.7,28.7,1.3,43.1-.6,7-2,13.8-4.8,20.2-4.5,10.1-12.6,16.2-22.8,19.7-9.2,3.2-18.7,5.1-28.5,5.1h-263.1c2-3.7,3.9-7.3,5.8-10.8,5.1-9.5,10.3-19,15.3-28.6.8-1.5,1.7-1.9,3.3-1.9h202.9c6.1,0,12.1-.1,18-2.1,7.2-2.4,11-7.5,11.8-14.9.2-2.3.3-4.7,0-7-1.1-7.7-5.3-12.1-13.8-13.5-7.7-1.3-15.4-2.3-23.2-2.5-24.9-.6-49.8-.4-74.7-1-12.9-.3-25.8-1.2-38.6-2.5-9.7-.9-19.3-3-28.2-7.3-8.5-4.2-14.3-10.8-17-20-.2-.9-.2-2.1.2-2.9,14.4-26.9,28.9-53.8,43.3-80.7,1.9-3.4,3.7-6.9,5.6-10.3.3-.6,1.3-.9,2-1.2.3-.1.7,0,1,0h225.3v-.2Z"/>
      <path class="st10" d="M-1465.7-178.7h-302.4v-207.1h189.5c.8,0,1.9.5,2.3,1.1,7.8,14.4,15.6,28.9,23.4,43.4,0,.2,0,.4.3.8h-154.3v37.3h105.2v40.1h-105.1v37.5h213.7c1.8,0,2.8.5,3.6,2.2,7.7,14.5,15.5,29,23.3,43.4.2.4.4.9.7,1.5h0l-.2-.2Z"/>
      <path class="st10" d="M-771.6-228.6v50h-213.4c-7.1,0-13.6-1.3-20.1-3.8-10.6-4.2-19.7-10.4-26.3-20-.8-1.2-1.1-2.3-.7-3.8,2.6-8.7,3.7-17.7,3.8-26.7,0-7.9,0-15.9-.5-23.8-.9-12.5-3.3-24.7-11.2-34.9-2.8-3.6-3.6-7.1-3.5-11.3.3-6.6,0-13.3.3-19.9.6-11.9,2.8-23.5,8.5-34.2,7.3-13.8,19.1-22.1,33.7-26.9,4.4-1.5,8.8-2.2,13.6-2.2h215.9v49.9h-166.1c-6,0-11.9.7-17.8,2.3-11.2,3.2-17.8,10.6-20.1,21.8-1,5-1.5,10.1-1.6,15.2-.2,10.6-.3,21.2,0,31.8.2,5.7,1.1,11.5,2.4,17.1,2.3,10.1,9.2,15.7,19.2,17.6,5.1.9,10.3,1.5,15.4,1.5h168.4v.3Z"/>
      <path class="st4" d="M-1399.4-207c-1.4-4.5-2.9-8.7-4-13-2.7-11-1.3-21.3,4.3-31.3,3.5-6.2,8.5-10.8,13.5-15.6,6.8-6.5,13.7-12.9,18.9-20.9,6-9.2,9.6-19.1,10.6-30,.5-5.3.8-10.6,1.2-15.9v-.8c-1.2-4.1.8-7.4,2.7-10.8,7.3-13,14.5-26.1,21.8-39.1.4-.6,1.2-1.4,1.9-1.4h65.6c-1.6,3-3.2,5.8-4.7,8.6-35.2,65.6-70.4,131.1-105.5,196.7-.8,1.6-1.7,2-3.5,2h-73.3c-1.4,0-2.1-.4-2.8-1.6-30.3-56.5-60.7-113-91-169.6-6.4-11.9-12.8-23.8-19.3-36h64.8c1.3,0,2,.4,2.7,1.6,9.1,17.4,18.3,34.8,27.4,52.2.4.8.7,1.8.6,2.7-1.9,21.7,2.2,42.3,11.4,61.8,12.2,25.8,31.6,45.1,55.6,60.1.2.1.5.2,1,.4h.1Z"/>
      <path class="st0" d="M-1410.7-222.3c-9.3-7.5-17.3-16.3-24.2-26-11.2-15.8-18.8-33.2-21.9-52.3-4-24.6,0-47.8,15-68.2,5.5-7.5,12.1-14.2,18.6-20.9,6.3-6.6,11.9-13.4,14.6-22.3,2-6.7,2.5-13.4,1.6-20.2,0-.2,0-.4,0-1.1,3.5,5.5,6.9,10.5,10,15.7,3.7,6.3,7.5,12.6,9.3,19.7,3.3,13,1,25.1-5.3,36.7-4.5,8.4-10.6,15.4-17.5,22-7.3,7-14.3,14.2-19.5,23-6,10-7.1,20.7-4.8,31.9.5,2.6,1.2,5.2,1.9,7.8.2.8.6,1.6.8,2.2.8-5.9,1.3-12,2.3-17.9,1.7-9.3,6.5-17.1,12.9-23.9,6.9-7.4,14.1-14.7,20.9-22.2,8.8-9.5,14.5-20.6,16-33.6.5-4.6,0-9.2,0-14,1.4,2.8,2.8,5.5,4,8.3,5.5,12.2,9.7,24.8,11.8,38.1,2.9,19-1.2,36.1-13.9,50.7-5.8,6.7-12.2,13-18.4,19.4-4.2,4.3-8.1,8.9-10.8,14.4-4.7,9.7-5.8,19.8-3.6,30.2,0,.7.2,1.3.4,2,0,.1-.2.3-.4.4h0Z"/>
      <path class="st0" d="M-1410.3-222.7c0,.2,0,.5.2.7-.2,0-.4-.2-.6-.3,0-.1.2-.3.4-.4h0Z"/>
      <g class="st5">
        <g class="st5">
          <text class="st3" transform="translate(-1771.8 -99) scale(.9 1)"><tspan x="0" y="0">Evansville</tspan></text>
        </g>
        <g class="st5">
          <text class="st3" transform="translate(-1523.5 -99) scale(.9 1)"><tspan x="0" y="0">V</tspan></text>
        </g>
        <g class="st5">
          <text class="st3" transform="translate(-1492.7 -99) scale(.9 1)"><tspan x="0" y="0">anderburgh School Corporation</tspan></text>
        </g>
      </g>
      <rect class="st1" x="-614.6" y="-2268.3" width="1920" height="768"/>
      <path class="st11" d="M647.4-2103.6c-19.2,12.1-30.1,29.3-35.5,50.2h-200.4c-7.9,0-15.8.9-22.8,5.2-6,3.8-9.2,9.2-9.1,16.4,0,3.7.2,7.5,1.2,10.9,2.2,7.2,8.3,10.3,15.1,11.3,8.4,1.3,16.9,2.4,25.3,2.6,29.4.5,58.7.2,88.1.7,15.6.3,31.3,1.2,46.9,2.5,11.6,1,23.1,3.2,34.1,7.3,17.9,6.7,27.9,19.7,31.3,38.1,3.3,17.4,3.2,35,1.6,52.6-.8,8.5-2.4,16.8-5.9,24.6-5.5,12.3-15.4,19.7-27.8,24-11.2,3.9-22.8,6.2-34.8,6.1H234.1c2.4-4.5,4.7-8.9,7.1-13.2,6.2-11.6,12.5-23.2,18.6-34.8,1-1.9,2.1-2.4,4.1-2.4h247.3c7.4,0,14.8,0,21.9-2.6,8.8-3,13.4-9.1,14.4-18.1.3-2.8.3-5.8,0-8.6-1.4-9.4-6.4-14.7-16.8-16.4-9.3-1.6-18.8-2.8-28.3-3-30.4-.7-60.7-.5-91.1-1.2-15.7-.4-31.4-1.5-47.1-3.1-11.8-1.2-23.5-3.6-34.4-8.9-10.4-5.1-17.5-13.1-20.7-24.3-.3-1.1-.2-2.5.3-3.5,17.6-32.8,35.2-65.6,52.8-98.3,2.3-4.2,4.4-8.5,6.8-12.6.4-.7,1.6-1.1,2.4-1.5.3-.2.8,0,1.2,0h274.9Z"/>
      <path class="st11" d="M105.8-1851h-368.6v-252.4c.7,0,1.4-.1,2.1-.1H-31.9c.9,0,2.4.6,2.8,1.3,9.6,17.6,19,35.3,28.5,52.9,0,.2.2.4.4.9h-188.1v45.5H-60.2v48.8h-128.1v45.7H72.1c2.2,0,3.4.6,4.4,2.6,9.4,17.7,18.9,35.3,28.4,52.9.3.5.5,1,.9,1.8h0Z"/>
      <path class="st11" d="M951.7-1911.8v60.9h-2.9c-85.7,0-171.4,0-257.2,0-8.6,0-16.6-1.5-24.5-4.6-13-5.1-24-12.7-32.1-24.3-1-1.5-1.3-2.8-.8-4.6,3.2-10.6,4.6-21.5,4.6-32.6s0-19.4-.6-29c-1.1-15.2-4.1-30.1-13.7-42.5-3.4-4.4-4.4-8.6-4.2-13.8.3-8.1,0-16.2.4-24.3.8-14.5,3.4-28.6,10.3-41.6,8.9-16.9,23.3-26.9,41-32.8,5.4-1.8,10.8-2.7,16.5-2.7,86.6.1,173.3,0,260,0h3.1v60.9h-202.4c-7.3,0-14.6.8-21.7,2.8-13.6,3.9-21.7,12.9-24.5,26.6-1.2,6.1-1.9,12.3-2,18.5-.3,12.9-.4,25.8,0,38.7.2,7,1.3,14,2.9,20.9,2.8,12.3,11.3,19.2,23.4,21.4,6.2,1.1,12.5,1.8,18.8,1.8,67.3,0,134.7,0,202,0h3.3l.3.2Z"/>
      <path class="st11" d="M186.5-1885.5c-1.7-5.5-3.5-10.6-4.8-15.9-3.3-13.4-1.6-26,5.3-38.1,4.3-7.5,10.3-13.2,16.4-19,8.3-7.9,16.6-15.8,23-25.5,7.3-11.1,11.7-23.3,13-36.6.6-6.4,1-12.9,1.4-19.4v-1c-1.5-5,1-9,3.3-13.1,8.9-15.9,17.7-31.8,26.6-47.6.4-.8,1.5-1.7,2.3-1.7h79.9c-2,3.7-3.9,7.1-5.7,10.5-42.9,79.9-85.8,159.8-128.6,239.7-1,1.9-2.1,2.5-4.2,2.5h-89.4c-1.7,0-2.6-.5-3.4-2-36.9-68.9-74-137.8-111-206.6-7.8-14.5-15.6-29.1-23.6-43.9.8,0,1.5-.1,2.1-.1h77c1.6,0,2.5.5,3.3,2,11.1,21.2,22.3,42.4,33.4,63.6.5,1,.9,2.2.8,3.3-2.3,26.4,2.6,51.5,13.9,75.4,14.9,31.5,38.6,55,67.8,73.2.3.2.6.2,1.2.5h0v-.2Z"/>
      <path class="st0" d="M172.8-1904.2c-11.4-9.2-21.1-19.8-29.5-31.7-13.6-19.3-22.9-40.5-26.7-63.8-4.9-30,0-58.2,18.3-83.1,6.7-9.1,14.8-17.3,22.6-25.5,7.7-8,14.5-16.3,17.8-27.1,2.5-8.1,3.1-16.3,1.9-24.7,0-.2,0-.5.1-1.4,4.3,6.7,8.4,12.8,12.1,19.1,4.6,7.6,9.1,15.3,11.4,24,4.1,15.8,1.2,30.6-6.5,44.8-5.5,10.2-13,18.8-21.3,26.8-8.9,8.5-17.4,17.4-23.8,28.1-7.3,12.2-8.7,25.3-5.9,38.9.6,3.2,1.5,6.4,2.3,9.5.3,1,.7,2,1,2.7.9-7.2,1.5-14.6,2.8-21.9,2.1-11.3,8-20.8,15.7-29.1,8.4-9.1,17.1-17.9,25.5-27,10.7-11.6,17.7-25.1,19.5-40.9.6-5.6.1-11.2.1-17.1,1.7,3.4,3.4,6.7,4.9,10.1,6.8,14.9,11.8,30.3,14.3,46.5,3.6,23.1-1.5,44-16.9,61.8-7.1,8.2-14.9,15.8-22.5,23.6-5.1,5.3-9.8,10.8-13.1,17.5-5.8,11.8-7,24.1-4.4,36.9.2.8.3,1.6.5,2.5-.1.2-.3.3-.5.5h.3Z"/>
      <path class="st0" d="M173.2-1904.6c0,.3.2.6.2.9-.2,0-.5-.2-.7-.4.1-.2.3-.3.5-.5Z"/>
      <g class="st5">
        <g class="st5">
          <text class="st8" transform="translate(-267.3 -1753.8) scale(.9 1)"><tspan x="0" y="0">Evansville</tspan></text>
        </g>
        <g class="st5">
          <text class="st8" transform="translate(34.7 -1753.8) scale(.9 1)"><tspan x="0" y="0">V</tspan></text>
        </g>
        <g class="st5">
          <text class="st8" transform="translate(72.2 -1753.8) scale(.9 1)"><tspan x="0" y="0">anderburgh School Corporation</tspan></text>
        </g>
      </g>
      <g class="st5">
        <g class="st5">
          <text class="st7" transform="translate(-270.9 -1647.5)"><tspan x="0" y="0">Bringing Learning to Life</tspan></text>
        </g>
      </g>
      <path class="st11" d="M-1343.5-1719.6c-19.2,12.1-30.1,29.3-35.5,50.2h-200.4c-7.9,0-15.8.8-22.8,5.2-6,3.8-9.2,9.2-9.1,16.4,0,3.7.2,7.5,1.2,10.9,2.2,7.2,8.3,10.3,15.1,11.3,8.4,1.3,16.8,2.4,25.3,2.6,29.3.5,58.7.2,88,.7,15.7.3,31.3,1.2,46.9,2.5,11.6,1,23.1,3.2,34.1,7.3,17.9,6.7,27.8,19.7,31.3,38.1,3.3,17.4,3.2,35,1.6,52.6-.8,8.5-2.4,16.8-5.9,24.6-5.5,12.3-15.4,19.7-27.8,24-11.2,3.8-22.8,6.2-34.8,6.2h-320.6c2.4-4.5,4.7-8.9,7-13.2,6.2-11.6,12.5-23.2,18.6-34.8,1-1.8,2.1-2.4,4.1-2.4h247.3c7.4,0,14.8,0,22-2.6,8.8-3,13.4-9.1,14.4-18.2.3-2.8.3-5.8,0-8.6-1.4-9.4-6.4-14.7-16.8-16.4-9.3-1.6-18.8-2.8-28.3-3-30.3-.7-60.7-.5-91.1-1.2-15.7-.4-31.4-1.5-47.1-3.1-11.8-1.2-23.5-3.6-34.4-8.9-10.4-5.1-17.5-13.1-20.7-24.3-.3-1.1-.2-2.5.3-3.5,17.5-32.8,35.2-65.6,52.8-98.3,2.3-4.2,4.5-8.5,6.8-12.6.4-.7,1.6-1.1,2.4-1.5.3-.2.8,0,1.2,0h275Z"/>
      <path class="st11" d="M-1885.1-1467h-368.6v-252.4c.7,0,1.4,0,2.1,0h228.8c.9,0,2.4.6,2.8,1.3,9.6,17.6,19,35.3,28.5,52.9,0,.2.2.4.4.9h-188.1v45.5h128.2v48.8h-128.1v45.7h260.4c2.2,0,3.4.6,4.4,2.6,9.4,17.7,18.9,35.3,28.4,52.9.3.5.5,1,.9,1.8h-.1Z"/>
      <path class="st11" d="M-1039.1-1527.8v60.9h-2.9c-85.7,0-171.4,0-257.2,0-8.6,0-16.6-1.5-24.5-4.6-13-5.1-24-12.7-32-24.3-1-1.5-1.3-2.8-.8-4.6,3.2-10.6,4.5-21.5,4.6-32.6,0-9.7,0-19.4-.6-29-1.1-15.2-4.1-30.1-13.7-42.5-3.4-4.4-4.4-8.6-4.2-13.8.3-8.1,0-16.2.4-24.3.8-14.5,3.5-28.6,10.3-41.6,8.9-16.9,23.3-26.9,41-32.8,5.4-1.8,10.8-2.7,16.5-2.7,86.7,0,173.3,0,260,0h3.1v60.9h-202.4c-7.3,0-14.5.8-21.7,2.8-13.6,3.9-21.7,12.9-24.5,26.6-1.2,6.1-1.9,12.3-2,18.5-.3,12.9-.4,25.8,0,38.7.2,7,1.3,14,2.9,20.9,2.8,12.3,11.3,19.2,23.4,21.4,6.2,1.1,12.5,1.8,18.8,1.8,67.3,0,134.7,0,202,0h3.3l.2.2Z"/>
      <path class="st11" d="M-1804.3-1501.5c-1.7-5.5-3.5-10.6-4.8-15.8-3.3-13.4-1.6-26,5.3-38.1,4.3-7.5,10.3-13.2,16.4-19,8.3-7.9,16.6-15.8,23-25.5,7.3-11.2,11.7-23.3,13-36.6.6-6.5,1-12.9,1.4-19.4v-1c-1.5-5,1-9,3.3-13.1,8.9-15.8,17.7-31.8,26.6-47.7.4-.8,1.5-1.7,2.3-1.7h79.9c-2,3.7-3.8,7.1-5.7,10.5-42.9,79.9-85.8,159.8-128.6,239.7-1,1.9-2.1,2.5-4.2,2.5h-89.4c-1.7,0-2.6-.5-3.5-2-37-68.9-74-137.8-111-206.6-7.8-14.5-15.6-29.1-23.6-43.9.8,0,1.5,0,2.1,0h77c1.6,0,2.5.5,3.3,2,11.1,21.2,22.3,42.4,33.4,63.6.5,1,.9,2.2.8,3.3-2.3,26.4,2.6,51.5,13.9,75.4,14.9,31.5,38.5,55,67.8,73.2.3.2.6.2,1.2.5h0v-.2Z"/>
      <path class="st0" d="M-1818.1-1520.2c-11.4-9.2-21.1-19.8-29.5-31.7-13.6-19.3-22.9-40.5-26.7-63.8-4.9-30,0-58.2,18.3-83.1,6.7-9.1,14.8-17.3,22.6-25.5,7.7-8,14.5-16.3,17.8-27.2,2.5-8.1,3.1-16.3,1.9-24.7,0-.2,0-.5,0-1.4,4.3,6.7,8.4,12.8,12.1,19.1,4.6,7.6,9.1,15.3,11.4,24,4.1,15.8,1.2,30.6-6.5,44.8-5.5,10.2-13,18.8-21.3,26.8-8.9,8.5-17.4,17.4-23.8,28-7.3,12.2-8.7,25.2-5.9,38.9.6,3.2,1.5,6.4,2.3,9.5.3,1,.7,2,1,2.7.9-7.2,1.5-14.6,2.8-21.9,2.1-11.3,8-20.8,15.7-29.1,8.5-9.1,17.1-17.9,25.5-27,10.7-11.6,17.7-25.1,19.5-40.9.6-5.5,0-11.2,0-17.1,1.7,3.4,3.4,6.7,4.9,10.1,6.8,14.9,11.8,30.3,14.3,46.5,3.6,23.2-1.5,44-16.9,61.8-7.1,8.2-14.9,15.8-22.5,23.6-5.1,5.3-9.8,10.8-13.1,17.5-5.8,11.8-7,24.1-4.4,36.9.2.8.3,1.7.5,2.5,0,.2-.3.3-.5.5h0l.3.2Z"/>
      <path class="st0" d="M-1817.7-1520.6c0,.3.2.6.2.9-.2,0-.5-.2-.7-.4,0-.2.3-.3.5-.5Z"/>
      <g class="st5">
        <g class="st5">
          <text class="st8" transform="translate(-2258.2 -1369.8) scale(.9 1)"><tspan x="0" y="0">Evansville</tspan></text>
        </g>
        <g class="st5">
          <text class="st8" transform="translate(-1956.2 -1369.8) scale(.9 1)"><tspan x="0" y="0">V</tspan></text>
        </g>
        <g class="st5">
          <text class="st8" transform="translate(-1918.7 -1369.8) scale(.9 1)"><tspan x="0" y="0">anderburgh School Corporation</tspan></text>
        </g>
      </g>
      <g class="st5">
        <g class="st5">
          <text class="st7" transform="translate(-2261.8 -1263.5)"><tspan x="0" y="0">Bringing Learning to Life</tspan></text>
        </g>
      </g>
    </g>
    <g id="Bringing_Learning_to_Life">
      <g class="st5">
        <g class="st5">
          <text class="st6" transform="translate(-1286.3 -2016.5)"><tspan x="0" y="0">Bringing Learning to Life</tspan></text>
        </g>
      </g>
    </g>
  </g>
  <g id="Layer_2">
    <g>
      <g class="st5">
        <g class="st5">
          <g class="st5">
            <path class="st9" d="M9.7,215.9h14c2.8,0,4.8.1,6.2.3,1.4.2,2.6.7,3.7,1.4,1.1.7,2,1.7,2.7,2.9.7,1.2,1.1,2.6,1.1,4.1s-.4,3.1-1.3,4.5c-.9,1.4-2.1,2.4-3.6,3.1,2.1.6,3.8,1.7,4.9,3.2,1.1,1.5,1.7,3.3,1.7,5.3s-.4,3.1-1.1,4.6c-.7,1.5-1.8,2.7-3,3.6-1.3.9-2.9,1.5-4.7,1.7-1.2.1-4,.2-8.5.2h-11.9v-35ZM16.8,221.8v8.1h4.6c2.8,0,4.5,0,5.1-.1,1.2-.1,2.2-.6,2.9-1.3.7-.7,1-1.6,1-2.7s-.3-2-.9-2.6c-.6-.7-1.5-1.1-2.7-1.2-.7,0-2.7-.1-6-.1h-4.1ZM16.8,235.7v9.4h6.5c2.5,0,4.2,0,4.9-.2,1.1-.2,1.9-.7,2.6-1.4.7-.7,1-1.7,1-3s-.3-1.9-.8-2.7c-.5-.7-1.2-1.3-2.2-1.6-1-.3-3.1-.5-6.3-.5h-5.7Z"/>
            <path class="st9" d="M51.4,251h-6.7v-25.4h6.2v3.6c1.1-1.7,2-2.8,2.9-3.4.9-.5,1.8-.8,2.9-.8s3,.4,4.4,1.3l-2.1,5.9c-1.1-.7-2.2-1.1-3.2-1.1s-1.7.3-2.4.8-1.2,1.5-1.5,2.8-.6,4.2-.6,8.5v7.8Z"/>
            <path class="st9" d="M64,222.2v-6.2h6.7v6.2h-6.7ZM64,251v-25.4h6.7v25.4h-6.7Z"/>
            <path class="st9" d="M100.7,251h-6.7v-13c0-2.7-.1-4.5-.4-5.3-.3-.8-.8-1.4-1.4-1.9-.6-.4-1.4-.7-2.3-.7s-2.2.3-3.1,1-1.6,1.5-1.9,2.5c-.3,1.1-.5,3-.5,5.8v11.5h-6.7v-25.4h6.2v3.7c2.2-2.9,5-4.3,8.4-4.3s2.8.3,4.1.8c1.2.5,2.2,1.2,2.8,2,.6.8,1.1,1.8,1.3,2.8s.4,2.6.4,4.5v15.8Z"/>
            <path class="st9" d="M106.9,252.7l7.7.9c.1.9.4,1.5.9,1.8.6.5,1.6.7,3,.7s3.1-.3,3.9-.8c.6-.4,1-.9,1.3-1.7.2-.6.3-1.6.3-3.1v-3.7c-2,2.7-4.5,4.1-7.6,4.1s-6.1-1.4-8.1-4.3c-1.6-2.3-2.3-5.1-2.3-8.5s1-7.5,3.1-9.8c2-2.2,4.6-3.4,7.6-3.4s5.7,1.4,7.8,4.1v-3.6h6.3v22.8c0,3-.2,5.2-.7,6.7-.5,1.5-1.2,2.6-2.1,3.5s-2.1,1.5-3.6,2c-1.5.5-3.4.7-5.7.7-4.3,0-7.4-.7-9.2-2.2-1.8-1.5-2.7-3.3-2.7-5.6s0-.5,0-.8ZM112.9,237.8c0,2.7.5,4.7,1.6,5.9,1,1.3,2.3,1.9,3.9,1.9s3-.6,4.2-1.9c1.1-1.3,1.7-3.2,1.7-5.7s-.5-4.6-1.6-5.9c-1.1-1.3-2.5-1.9-4.1-1.9s-2.9.6-4,1.9c-1,1.3-1.6,3.2-1.6,5.7Z"/>
            <path class="st9" d="M137.4,222.2v-6.2h6.7v6.2h-6.7ZM137.4,251v-25.4h6.7v25.4h-6.7Z"/>
            <path class="st9" d="M174.1,251h-6.7v-13c0-2.7-.1-4.5-.4-5.3-.3-.8-.8-1.4-1.4-1.9-.6-.4-1.4-.7-2.3-.7s-2.2.3-3.1,1-1.6,1.5-1.9,2.5c-.3,1.1-.5,3-.5,5.8v11.5h-6.7v-25.4h6.2v3.7c2.2-2.9,5-4.3,8.4-4.3s2.8.3,4.1.8c1.2.5,2.2,1.2,2.8,2,.6.8,1.1,1.8,1.3,2.8s.4,2.6.4,4.5v15.8Z"/>
            <path class="st9" d="M180.3,252.7l7.7.9c.1.9.4,1.5.9,1.8.6.5,1.6.7,3,.7s3.1-.3,3.9-.8c.6-.4,1-.9,1.3-1.7.2-.6.3-1.6.3-3.1v-3.7c-2,2.7-4.5,4.1-7.6,4.1s-6.1-1.4-8.1-4.3c-1.6-2.3-2.3-5.1-2.3-8.5s1-7.5,3.1-9.8c2-2.2,4.6-3.4,7.6-3.4s5.7,1.4,7.8,4.1v-3.6h6.3v22.8c0,3-.2,5.2-.7,6.7-.5,1.5-1.2,2.6-2.1,3.5s-2.1,1.5-3.6,2c-1.5.5-3.4.7-5.7.7-4.3,0-7.4-.7-9.2-2.2-1.8-1.5-2.7-3.3-2.7-5.6s0-.5,0-.8ZM186.3,237.8c0,2.7.5,4.7,1.6,5.9,1,1.3,2.3,1.9,3.9,1.9s3-.6,4.2-1.9c1.1-1.3,1.7-3.2,1.7-5.7s-.5-4.6-1.6-5.9c-1.1-1.3-2.5-1.9-4.1-1.9s-2.9.6-4,1.9c-1,1.3-1.6,3.2-1.6,5.7Z"/>
            <path class="st9" d="M224.7,251v-34.8h7.1v28.9h17.6v5.9h-24.7Z"/>
            <path class="st9" d="M269,242.9l6.7,1.1c-.9,2.5-2.2,4.3-4.1,5.6-1.9,1.3-4.2,1.9-7,1.9-4.4,0-7.7-1.4-9.8-4.3-1.7-2.3-2.5-5.2-2.5-8.7s1.1-7.5,3.3-9.9c2.2-2.4,5-3.6,8.3-3.6s6.8,1.2,8.9,3.7,3.2,6.3,3.1,11.5h-16.8c0,2,.6,3.5,1.6,4.6,1,1.1,2.3,1.7,3.9,1.7s1.9-.3,2.7-.9c.7-.6,1.3-1.5,1.6-2.8ZM269.4,236.1c0-1.9-.5-3.4-1.5-4.4s-2.1-1.5-3.5-1.5-2.7.5-3.6,1.6-1.4,2.5-1.4,4.3h10Z"/>
            <path class="st9" d="M286.6,233.3l-6.1-1.1c.7-2.5,1.9-4.3,3.5-5.4,1.7-1.2,4.2-1.8,7.5-1.8s5.2.4,6.7,1.1c1.5.7,2.5,1.6,3.1,2.7.6,1.1.9,3.1.9,6v7.8c0,2.2,0,3.9.3,4.9.2,1.1.6,2.2,1.2,3.4h-6.6c-.2-.4-.4-1.1-.6-2-.1-.4-.2-.7-.2-.8-1.1,1.1-2.4,2-3.7,2.5-1.3.6-2.7.8-4.2.8-2.6,0-4.7-.7-6.2-2.1-1.5-1.4-2.3-3.2-2.3-5.4s.3-2.7,1-3.8c.7-1.1,1.6-2,2.9-2.6s3-1.1,5.3-1.6c3.1-.6,5.3-1.1,6.5-1.6v-.7c0-1.3-.3-2.2-1-2.8s-1.8-.8-3.6-.8-2.1.2-2.8.7c-.7.5-1.2,1.3-1.6,2.5ZM295.6,238.8c-.9.3-2.2.6-4.1,1-1.9.4-3.1.8-3.7,1.2-.9.6-1.3,1.4-1.3,2.4s.4,1.8,1.1,2.4c.7.7,1.6,1,2.7,1s2.4-.4,3.5-1.2c.8-.6,1.3-1.3,1.6-2.2.2-.6.3-1.7.3-3.3v-1.3Z"/>
            <path class="st9" d="M315.2,251h-6.7v-25.4h6.2v3.6c1.1-1.7,2-2.8,2.9-3.4.9-.5,1.8-.8,2.9-.8s3,.4,4.4,1.3l-2.1,5.9c-1.1-.7-2.2-1.1-3.2-1.1s-1.7.3-2.4.8c-.7.5-1.2,1.5-1.5,2.8-.4,1.4-.6,4.2-.6,8.5v7.8Z"/>
            <path class="st9" d="M350.9,251h-6.7v-13c0-2.7-.1-4.5-.4-5.3-.3-.8-.8-1.4-1.4-1.9-.6-.4-1.4-.7-2.3-.7s-2.2.3-3.1,1c-.9.6-1.6,1.5-1.9,2.5s-.5,3-.5,5.8v11.5h-6.7v-25.4h6.2v3.7c2.2-2.9,5-4.3,8.4-4.3s2.8.3,4.1.8c1.2.5,2.2,1.2,2.8,2,.6.8,1.1,1.8,1.3,2.8s.4,2.6.4,4.5v15.8Z"/>
            <path class="st9" d="M357.7,222.2v-6.2h6.7v6.2h-6.7ZM357.7,251v-25.4h6.7v25.4h-6.7Z"/>
            <path class="st9" d="M394.4,251h-6.7v-13c0-2.7-.1-4.5-.4-5.3-.3-.8-.8-1.4-1.4-1.9-.6-.4-1.4-.7-2.3-.7s-2.2.3-3.1,1c-.9.6-1.6,1.5-1.9,2.5s-.5,3-.5,5.8v11.5h-6.7v-25.4h6.2v3.7c2.2-2.9,5-4.3,8.4-4.3s2.8.3,4.1.8c1.2.5,2.2,1.2,2.8,2,.6.8,1.1,1.8,1.3,2.8s.4,2.6.4,4.5v15.8Z"/>
            <path class="st9" d="M400.6,252.7l7.7.9c.1.9.4,1.5.9,1.8.6.5,1.6.7,3,.7s3.1-.3,3.9-.8c.6-.4,1-.9,1.3-1.7.2-.6.3-1.6.3-3.1v-3.7c-2,2.7-4.5,4.1-7.6,4.1s-6.1-1.4-8.1-4.3c-1.6-2.3-2.3-5.1-2.3-8.5s1-7.5,3.1-9.8c2-2.2,4.6-3.4,7.6-3.4s5.7,1.4,7.8,4.1v-3.6h6.3v22.8c0,3-.2,5.2-.7,6.7-.5,1.5-1.2,2.6-2.1,3.5-.9.8-2.1,1.5-3.6,2-1.5.5-3.4.7-5.7.7-4.3,0-7.4-.7-9.2-2.2s-2.7-3.3-2.7-5.6,0-.5,0-.8ZM406.6,237.8c0,2.7.5,4.7,1.6,5.9s2.3,1.9,3.9,1.9,3-.6,4.2-1.9c1.1-1.3,1.7-3.2,1.7-5.7s-.5-4.6-1.6-5.9c-1.1-1.3-2.5-1.9-4.1-1.9s-2.9.6-4,1.9-1.6,3.2-1.6,5.7Z"/>
            <path class="st9" d="M456.4,225.6v5.4h-4.6v10.2c0,2.1,0,3.3.1,3.6,0,.3.3.6.6.8.3.2.7.3,1.1.3s1.5-.2,2.7-.6l.6,5.2c-1.6.7-3.3,1-5.3,1s-2.3-.2-3.3-.6c-1-.4-1.7-.9-2.1-1.6s-.8-1.5-.9-2.6c-.1-.8-.2-2.4-.2-4.7v-11.1h-3.1v-5.4h3.1v-5l6.7-3.9v9h4.6Z"/>
            <path class="st9" d="M459.5,237.9c0-2.2.5-4.4,1.6-6.5,1.1-2.1,2.7-3.7,4.7-4.8,2-1.1,4.3-1.6,6.8-1.6,3.8,0,7,1.2,9.4,3.7s3.7,5.6,3.7,9.5-1.2,7-3.7,9.5-5.6,3.8-9.4,3.8-4.5-.5-6.7-1.6c-2.1-1.1-3.7-2.6-4.8-4.6s-1.6-4.5-1.6-7.4ZM466.4,238.3c0,2.5.6,4.4,1.8,5.8,1.2,1.3,2.7,2,4.4,2s3.2-.7,4.4-2c1.2-1.3,1.8-3.3,1.8-5.8s-.6-4.4-1.8-5.7c-1.2-1.3-2.7-2-4.4-2s-3.2.7-4.4,2c-1.2,1.3-1.8,3.3-1.8,5.8Z"/>
            <path class="st9" d="M504.8,251v-34.8h7.1v28.9h17.6v5.9h-24.7Z"/>
            <path class="st9" d="M534.4,222.2v-6.2h6.7v6.2h-6.7ZM534.4,251v-25.4h6.7v25.4h-6.7Z"/>
            <path class="st9" d="M545.1,225.6h3.7v-1.9c0-2.1.2-3.7.7-4.8s1.3-1.9,2.5-2.6c1.2-.7,2.8-1,4.6-1s3.8.3,5.6.9l-.9,4.7c-1.1-.3-2.1-.4-3.1-.4s-1.7.2-2.1.7c-.4.5-.6,1.3-.6,2.6v1.8h5v5.3h-5v20.1h-6.7v-20.1h-3.7v-5.3Z"/>
            <path class="st9" d="M579,242.9l6.7,1.1c-.9,2.5-2.2,4.3-4.1,5.6-1.9,1.3-4.2,1.9-7,1.9-4.4,0-7.7-1.4-9.8-4.3-1.7-2.3-2.5-5.2-2.5-8.7s1.1-7.5,3.3-9.9c2.2-2.4,5-3.6,8.3-3.6s6.8,1.2,8.9,3.7c2.2,2.5,3.2,6.3,3.1,11.5h-16.8c0,2,.6,3.5,1.6,4.6,1,1.1,2.3,1.7,3.9,1.7s1.9-.3,2.7-.9c.7-.6,1.3-1.5,1.6-2.8ZM579.4,236.1c0-1.9-.5-3.4-1.5-4.4s-2.1-1.5-3.5-1.5-2.7.5-3.6,1.6-1.4,2.5-1.4,4.3h10Z"/>
          </g>
        </g>
      </g>
      <g>
        <path class="st10" d="M440.7,34.9c-9.1,5.7-14.2,13.9-16.8,23.8h-95c-3.8,0-7.5.4-10.8,2.5-2.9,1.8-4.4,4.4-4.3,7.8,0,1.7.1,3.5.6,5.2,1,3.4,3.9,4.9,7.1,5.4,4,.6,8,1.2,12,1.2,13.9.2,27.8,0,41.7.3,7.4,0,14.8.6,22.2,1.2,5.5.5,10.9,1.5,16.2,3.5,8.5,3.2,13.2,9.3,14.8,18.1,1.6,8.3,1.5,16.6.8,24.9-.4,4-1.1,7.9-2.8,11.7-2.6,5.8-7.3,9.4-13.2,11.4-5.3,1.8-10.8,2.9-16.5,2.9h-152c1.1-2.2,2.2-4.2,3.3-6.2,2.9-5.5,5.9-11,8.8-16.5.5-.9,1-1.1,1.9-1.1h117.2c3.5,0,7,0,10.4-1.2,4.1-1.4,6.4-4.3,6.8-8.6.1-1.3.1-2.7,0-4.1-.7-4.4-3.1-7-7.9-7.8-4.4-.7-8.9-1.3-13.4-1.4-14.4-.3-28.8-.2-43.2-.6-7.4-.2-14.9-.7-22.3-1.4-5.6-.6-11.1-1.7-16.3-4.2-4.9-2.4-8.3-6.2-9.8-11.5-.1-.5-.1-1.2.1-1.7,8.3-15.6,16.7-31.1,25-46.6,1.1-2,2.1-4,3.2-6,.2-.3.8-.5,1.2-.7h130.7l.3-.3Z"/>
        <path class="st10" d="M184,154.6H9.3V35h109.5c.4,0,1.1.3,1.3.6,4.5,8.3,9,16.7,13.5,25.1,0,0,0,.2.2.4H44.5v21.6h60.8v23.1h-60.7v21.7h123.4c1.1,0,1.6.3,2.1,1.2,4.4,8.4,9,16.7,13.5,25.1.1.2.2.5.4.8h0Z"/>
        <path class="st10" d="M585,125.8v28.9h-123.3c-4.1,0-7.9-.7-11.6-2.2-6.1-2.4-11.4-6-15.2-11.5-.5-.7-.6-1.3-.4-2.2,1.5-5,2.1-10.2,2.2-15.4,0-4.6,0-9.2-.3-13.8-.5-7.2-1.9-14.3-6.5-20.1-1.6-2.1-2.1-4.1-2-6.5.1-3.8,0-7.7.2-11.5.4-6.9,1.6-13.6,4.9-19.7,4.2-8,11.1-12.8,19.4-15.5,2.6-.8,5.1-1.3,7.8-1.3h124.7v28.9h-96c-3.5,0-6.9.4-10.3,1.3-6.5,1.8-10.3,6.1-11.6,12.6-.6,2.9-.9,5.8-.9,8.8-.1,6.1-.2,12.2,0,18.3.1,3.3.6,6.7,1.4,9.9,1.4,5.8,5.4,9.1,11.1,10.2,2.9.5,5.9.8,8.9.8h97.5Z"/>
        <path class="st4" d="M222.3,138.2c-.8-2.6-1.7-5-2.3-7.5-1.6-6.3-.8-12.3,2.5-18.1,2-3.6,4.9-6.3,7.8-9,3.9-3.7,7.9-7.5,10.9-12.1,3.5-5.3,5.6-11.1,6.1-17.3.3-3.1.5-6.1.7-9.2v-.5c-.7-2.4.5-4.3,1.6-6.2,4.2-7.5,8.4-15.1,12.6-22.6.2-.4.7-.8,1.1-.8h37.9c-.9,1.7-1.8,3.4-2.7,5-20.3,37.9-40.7,75.7-61,113.6-.5.9-1,1.2-2,1.2h-42.4c-.8,0-1.2-.2-1.6-1-17.5-32.7-35.1-65.3-52.6-97.9-3.7-6.9-7.4-13.8-11.2-20.8h37.5c.8,0,1.2.2,1.5.9,5.3,10.1,10.6,20.1,15.8,30.2.2.5.4,1.1.4,1.6-1.1,12.5,1.2,24.4,6.6,35.7,7.1,14.9,18.3,26.1,32.1,34.7.1,0,.3.1.6.2h0Z"/>
        <path class="st0" d="M215.7,129.4c-5.4-4.3-10-9.4-14-15-6.5-9.1-10.8-19.2-12.6-30.2-2.3-14.2,0-27.6,8.7-39.4,3.2-4.3,7-8.2,10.7-12.1,3.6-3.8,6.9-7.7,8.4-12.9,1.2-3.8,1.5-7.7.9-11.7v-.7c2,3.2,4,6.1,5.8,9.1,2.2,3.6,4.3,7.2,5.4,11.4,1.9,7.5.6,14.5-3.1,21.2-2.6,4.8-6.1,8.9-10.1,12.7-4.2,4-8.3,8.2-11.3,13.3-3.4,5.8-4.1,12-2.8,18.5.3,1.5.7,3,1.1,4.5.1.5.4.9.5,1.3.4-3.4.7-6.9,1.4-10.4,1-5.4,3.8-9.8,7.5-13.8,4-4.3,8.1-8.5,12.1-12.8,5.1-5.5,8.4-11.9,9.2-19.4.3-2.6,0-5.3,0-8.1.8,1.6,1.6,3.2,2.3,4.8,3.2,7.1,5.6,14.4,6.8,22,1.7,11-.7,20.9-8,29.3-3.4,3.9-7.1,7.5-10.6,11.2-2.4,2.5-4.7,5.1-6.2,8.3-2.7,5.6-3.3,11.4-2.1,17.5,0,.4.1.8.2,1.2,0,0-.1.2-.2.2h0Z"/>
        <path class="st0" d="M215.9,129.2c0,.1,0,.3.1.4-.1,0-.2-.1-.3-.2,0,0,.1-.2.2-.2Z"/>
      </g>
      <g class="st5">
        <g class="st5">
          <g class="st5">
            <path class="st1" d="M9.5,200.8v-28.9h15.4v3.4h-12.6v8.8h11.8v3.4h-11.8v9.8h13.1v3.4h-15.9Z"/>
            <path class="st1" d="M33.3,200.8l-5.9-21h2.8l3.3,12.6c.4,1.4.7,2.8,1,4.2.2-1.1.5-2.4,1-4l3.5-12.8h2.7l-5.9,21h-2.4Z"/>
            <path class="st1" d="M54,198.2c-.9,1-1.8,1.8-2.7,2.3-.9.5-1.9.8-2.9.8-1.6,0-2.9-.5-3.9-1.6-1-1.1-1.4-2.5-1.4-4.4s.2-2.3.7-3.2c.4-.9,1.1-1.7,1.8-2.2.8-.5,2-.9,3.6-1.2,2.1-.3,3.7-.8,4.7-1.2v-.9c0-1.4-.2-2.4-.7-3-.7-.8-1.7-1.3-3-1.3s-2.1.3-2.7.8c-.6.6-1,1.6-1.3,3.2l-2.6-.5c.4-2.2,1.1-3.9,2.2-4.9,1.1-1,2.7-1.5,4.8-1.5s2.9.3,3.8,1c.9.7,1.5,1.5,1.7,2.5s.4,2.5.4,4.4v4.7c0,3.3,0,5.4.2,6.3.1.9.3,1.7.7,2.5h-2.7c-.3-.7-.5-1.6-.5-2.6ZM53.8,190.3c-1,.5-2.4,1-4.3,1.3-1.1.2-1.9.5-2.3.7s-.8.7-1,1.1-.4,1.1-.4,1.7c0,1,.3,1.8.8,2.4.6.6,1.3.9,2.3.9s1.8-.3,2.5-.8c.8-.5,1.3-1.3,1.7-2.2.4-.9.6-2.2.6-3.9v-1.3Z"/>
            <path class="st1" d="M60.5,200.8v-21h2.4v3c.6-1.2,1.3-2,2.1-2.6s1.8-.9,2.8-.9,1.6.2,2.3.5c.7.4,1.3.8,1.7,1.4.4.6.8,1.3,1,2.3.2.9.3,2.4.3,4.3v12.9h-2.6v-12.8c0-1.5-.1-2.7-.4-3.4s-.6-1.3-1.1-1.6c-.5-.4-1.1-.6-1.7-.6-1.3,0-2.3.5-3,1.6s-1.1,2.8-1.1,5.4v11.5h-2.6Z"/>
            <path class="st1" d="M76.1,194.5l2.6-.6c.2,1.5.6,2.6,1.3,3.3.7.7,1.6,1.1,2.7,1.1s2-.3,2.6-.9c.6-.6.9-1.4.9-2.4s-.3-1.5-.8-1.9c-.4-.3-1.3-.7-2.7-1.2-2-.7-3.4-1.3-4.1-1.8-.7-.5-1.2-1.1-1.6-2-.4-.8-.6-1.7-.6-2.8,0-1.8.5-3.2,1.5-4.4,1-1.1,2.5-1.7,4.3-1.7s2.2.2,3,.7c.9.5,1.5,1.1,2,1.9.5.8.8,1.9,1,3.3l-2.6.5c-.2-2.3-1.4-3.4-3.4-3.4s-2,.3-2.5.8c-.6.5-.8,1.2-.8,1.9s.3,1.4.8,1.8c.3.3,1.3.7,2.8,1.3,2.2.8,3.6,1.4,4.2,1.8.6.5,1.1,1.1,1.5,1.9s.5,1.7.5,2.8c0,2-.6,3.6-1.7,4.9-1.1,1.2-2.7,1.9-4.7,1.9-3.7,0-5.9-2.2-6.4-6.7Z"/>
            <path class="st1" d="M96.3,200.8l-5.9-21h2.8l3.3,12.6c.4,1.4.7,2.8,1,4.2.2-1.1.5-2.4,1-4l3.5-12.8h2.7l-5.9,21h-2.4Z"/>
            <path class="st1" d="M106.9,175.9v-4.1h2.6v4.1h-2.6ZM106.9,200.8v-21h2.6v21h-2.6Z"/>
            <path class="st1" d="M113.5,200.8v-28.9h2.6v28.9h-2.6Z"/>
            <path class="st1" d="M120.1,200.8v-28.9h2.6v28.9h-2.6Z"/>
            <path class="st1" d="M137.4,194l2.7.5c-.5,2.2-1.3,3.9-2.4,5.1s-2.6,1.7-4.4,1.7-4-.9-5.3-2.8c-1.4-1.8-2-4.5-2-8s.7-6.4,2.1-8.3,3.1-2.9,5.2-2.9,3.7.9,5,2.8,2,4.6,2,8.1v.9h-11.6c.1,2.4.6,4.1,1.5,5.3.9,1.2,1.9,1.8,3.2,1.8,2,0,3.3-1.4,4.1-4.3ZM128.8,188.3h8.6c-.1-1.8-.5-3.2-1-4.1-.8-1.3-1.9-2-3.2-2s-2.2.5-3,1.6c-.8,1.1-1.3,2.5-1.4,4.4Z"/>
          </g>
        </g>
        <g class="st5">
          <g class="st5">
            <path class="st1" d="M161.2,200.8l-8.3-28.9h3.1l5.6,21c.4,1.6.8,3.2,1.1,4.7.3-1.6.7-3.2,1.1-4.7l5.8-21h2.9l-8.3,28.9h-2.9Z"/>
          </g>
        </g>
        <g class="st5">
          <g class="st5">
            <path class="st1" d="M182.9,198.2c-.9,1-1.8,1.8-2.7,2.3-.9.5-1.9.8-2.9.8-1.6,0-2.9-.5-3.9-1.6-1-1.1-1.4-2.5-1.4-4.4s.2-2.3.7-3.2c.4-.9,1.1-1.7,1.8-2.2.8-.5,2-.9,3.6-1.2,2.1-.3,3.7-.8,4.7-1.2v-.9c0-1.4-.2-2.4-.7-3-.7-.8-1.7-1.3-3-1.3s-2.1.3-2.7.8c-.6.6-1,1.6-1.3,3.2l-2.6-.5c.4-2.2,1.1-3.9,2.2-4.9,1.1-1,2.7-1.5,4.8-1.5s2.9.3,3.8,1c.9.7,1.5,1.5,1.7,2.5s.4,2.5.4,4.4v4.7c0,3.3,0,5.4.2,6.3.1.9.3,1.7.7,2.5h-2.7c-.3-.7-.5-1.6-.5-2.6ZM182.6,190.3c-1,.5-2.4,1-4.3,1.3-1.1.2-1.9.5-2.3.7s-.8.7-1,1.1-.4,1.1-.4,1.7c0,1,.3,1.8.8,2.4.6.6,1.3.9,2.3.9s1.8-.3,2.5-.8c.8-.5,1.3-1.3,1.7-2.2.4-.9.6-2.2.6-3.9v-1.3Z"/>
            <path class="st1" d="M189.4,200.8v-21h2.4v3c.6-1.2,1.3-2,2.1-2.6s1.8-.9,2.8-.9,1.6.2,2.3.5c.7.4,1.3.8,1.7,1.4.4.6.8,1.3,1,2.3.2.9.3,2.4.3,4.3v12.9h-2.6v-12.8c0-1.5-.1-2.7-.4-3.4s-.6-1.3-1.1-1.6c-.5-.4-1.1-.6-1.7-.6-1.3,0-2.3.5-3,1.6s-1.1,2.8-1.1,5.4v11.5h-2.6Z"/>
            <path class="st1" d="M216,200.8v-2.6c-.5,1-1.1,1.8-1.8,2.3-.7.5-1.6.8-2.4.8-1.8,0-3.4-1-4.7-2.9s-2-4.6-2-8.1.3-4.4.9-6.1c.6-1.7,1.4-2.9,2.4-3.7,1-.8,2.1-1.2,3.3-1.2s1.7.3,2.4.8c.7.5,1.4,1.2,1.8,2.1v-10.4h2.6v28.9h-2.5ZM207.7,190.3c0,2.7.4,4.7,1.3,6s1.8,2,3,2,2.1-.6,2.9-1.9c.8-1.3,1.2-3.2,1.2-5.7s-.4-5.1-1.2-6.4c-.8-1.3-1.8-2-3.1-2s-2,.6-2.8,1.9c-.8,1.3-1.2,3.3-1.2,6.1Z"/>
            <path class="st1" d="M233.1,194l2.7.5c-.5,2.2-1.3,3.9-2.4,5.1s-2.6,1.7-4.4,1.7-4-.9-5.3-2.8c-1.4-1.8-2-4.5-2-8s.7-6.4,2.1-8.3,3.1-2.9,5.2-2.9,3.7.9,5,2.8,2,4.6,2,8.1v.9h-11.6c.1,2.4.6,4.1,1.5,5.3.9,1.2,1.9,1.8,3.2,1.8,2,0,3.3-1.4,4.1-4.3ZM224.5,188.3h8.6c-.1-1.8-.5-3.2-1-4.1-.8-1.3-1.9-2-3.2-2s-2.2.5-3,1.6c-.8,1.1-1.3,2.5-1.4,4.4Z"/>
            <path class="st1" d="M239.1,200.8v-21h2.4v3.2c.6-1.5,1.2-2.5,1.7-2.9.5-.5,1.1-.7,1.7-.7s1.8.4,2.7,1.1l-.9,3.3c-.7-.5-1.3-.8-1.9-.8s-1.1.2-1.5.7c-.5.4-.8,1-1,1.8-.3,1.4-.5,2.8-.5,4.3v11h-2.6Z"/>
            <path class="st1" d="M251.5,200.8h-2.4v-28.9h2.6v10.3c.6-.9,1.2-1.7,1.9-2.1.7-.5,1.5-.7,2.4-.7s2.3.4,3.3,1.2c1,.8,1.8,2,2.4,3.7.6,1.6.9,3.6.9,5.9,0,3.6-.7,6.3-2,8.2-1.3,1.9-2.9,2.9-4.7,2.9s-1.7-.3-2.4-.8c-.7-.5-1.3-1.3-1.9-2.3v2.6ZM251.4,190.1c0,2.2.2,3.8.5,4.9.4,1.1.9,1.9,1.5,2.5.7.6,1.4.8,2.2.8s2-.7,2.9-2,1.3-3.4,1.3-6-.4-4.8-1.2-6.1-1.8-1.9-3-1.9-2,.7-2.9,2-1.3,3.3-1.3,5.9Z"/>
            <path class="st1" d="M275.8,200.8v-3.1c-.6,1.2-1.3,2.1-2.1,2.7-.8.6-1.7.9-2.8.9s-2.3-.4-3.1-1.1c-.9-.7-1.4-1.7-1.7-2.8-.3-1.1-.4-2.6-.4-4.6v-13h2.6v11.6c0,2.2,0,3.6.3,4.3.2.7.6,1.3,1.1,1.8s1.1.7,1.8.7c1.3,0,2.3-.6,3.1-1.7.7-1,1-2.8,1-5.4v-11.2h2.6v21h-2.3Z"/>
            <path class="st1" d="M282.2,200.8v-21h2.4v3.2c.6-1.5,1.2-2.5,1.7-2.9.5-.5,1.1-.7,1.7-.7s1.8.4,2.7,1.1l-.9,3.3c-.7-.5-1.3-.8-1.9-.8s-1.1.2-1.5.7c-.5.4-.8,1-1,1.8-.3,1.4-.5,2.8-.5,4.3v11h-2.6Z"/>
            <path class="st1" d="M291.7,202.5l2.6.5c.1,1.1.5,2,1.1,2.5.6.5,1.4.8,2.5.8s2.1-.3,2.7-.9c.7-.6,1.1-1.5,1.4-2.7.2-.7.2-2.3.2-4.7-.6.9-1.2,1.6-1.9,2-.7.5-1.5.7-2.4.7-1.8,0-3.4-.9-4.6-2.6-1.4-2-2.1-4.7-2.1-8s.3-4.2.9-5.9c.6-1.7,1.4-2.9,2.4-3.7s2.1-1.2,3.4-1.2,1.7.2,2.5.7c.8.5,1.4,1.2,2,2.2v-2.5h2.4v18.1c0,3.2-.2,5.5-.7,6.9-.5,1.4-1.2,2.5-2.3,3.3-1.1.8-2.4,1.2-3.9,1.2s-3.5-.6-4.6-1.8c-1.1-1.2-1.6-2.9-1.6-5ZM293.8,189.9c0,2.8.4,4.8,1.2,6,.8,1.3,1.8,1.9,3,1.9s2.2-.6,3-1.9,1.2-3.2,1.2-5.9-.4-4.6-1.3-5.9c-.9-1.3-1.9-1.9-3.1-1.9s-2,.6-2.9,1.9c-.8,1.3-1.2,3.2-1.2,5.7Z"/>
            <path class="st1" d="M308.8,200.8v-28.9h2.6v10.4c.6-1,1.3-1.7,2.1-2.2.8-.5,1.6-.7,2.6-.7,1.6,0,2.9.6,3.9,1.7s1.4,3.3,1.4,6.4v13.3h-2.6v-13.3c0-1.8-.3-3.1-.9-3.9-.6-.8-1.4-1.2-2.4-1.2s-2.1.5-2.9,1.5c-.8,1-1.2,2.8-1.2,5.4v11.5h-2.6Z"/>
            <path class="st1" d="M333.1,191.5l2.7-.3c.1,1.6.5,2.8,1,3.7.5.9,1.2,1.6,2.2,2.1.9.5,2,.8,3.2.8,1.7,0,3-.5,3.9-1.4.9-.9,1.4-2.1,1.4-3.6s-.2-1.6-.5-2.2c-.3-.6-.8-1.2-1.5-1.6-.7-.4-2.2-1-4.4-1.7-2-.7-3.4-1.3-4.3-2s-1.5-1.5-2-2.6c-.5-1-.7-2.2-.7-3.5,0-2.3.7-4.3,2-5.7s3.2-2.2,5.5-2.2,3,.3,4.2,1c1.2.7,2.1,1.7,2.8,3s1,2.8,1.1,4.6l-2.7.3c-.1-1.9-.6-3.3-1.5-4.2-.9-.9-2.1-1.4-3.7-1.4s-2.8.4-3.7,1.2c-.8.8-1.3,1.8-1.3,3.1s.3,2.1.9,2.7,2,1.3,4.2,2c2.1.6,3.6,1.2,4.4,1.7,1.3.7,2.3,1.7,2.9,2.9s1,2.6,1,4.3-.3,3.2-1,4.5c-.7,1.4-1.6,2.4-2.9,3.1-1.2.7-2.6,1.1-4.3,1.1-2.6,0-4.7-.9-6.3-2.6-1.6-1.8-2.4-4.2-2.4-7.2Z"/>
            <path class="st1" d="M363.7,193.1l2.6.5c-.3,2.5-1,4.4-2.2,5.7-1.2,1.3-2.6,2-4.3,2s-3.7-.9-5-2.8c-1.3-1.8-2-4.6-2-8.2s.7-6.4,2-8.2c1.3-1.8,3-2.7,5.1-2.7s2.9.6,4,1.7c1.1,1.1,1.8,2.8,2.1,5l-2.5.5c-.2-1.4-.7-2.5-1.3-3.2-.6-.7-1.4-1.1-2.2-1.1-1.3,0-2.4.6-3.2,1.9-.8,1.3-1.3,3.3-1.3,6s.4,4.9,1.2,6.2c.8,1.3,1.8,1.9,3.1,1.9s1.8-.4,2.5-1.3c.7-.8,1.2-2.2,1.3-4Z"/>
            <path class="st1" d="M368.5,200.8v-28.9h2.6v10.4c.6-1,1.3-1.7,2.1-2.2.8-.5,1.6-.7,2.6-.7,1.6,0,2.9.6,3.9,1.7s1.4,3.3,1.4,6.4v13.3h-2.6v-13.3c0-1.8-.3-3.1-.9-3.9-.6-.8-1.4-1.2-2.4-1.2s-2.1.5-2.9,1.5c-.8,1-1.2,2.8-1.2,5.4v11.5h-2.6Z"/>
            <path class="st1" d="M384.1,190.3c0-3.6.7-6.3,2.1-8.2,1.4-1.8,3.1-2.8,5.2-2.8s3.8.9,5.2,2.8c1.4,1.8,2.1,4.5,2.1,8s-.7,6.6-2,8.4c-1.4,1.8-3.1,2.8-5.2,2.8s-3.8-.9-5.2-2.8c-1.4-1.8-2.1-4.6-2.1-8.2ZM386.7,190.3c0,2.7.4,4.7,1.3,6.1s2,2,3.3,2,2.3-.7,3.2-2,1.3-3.3,1.3-6-.4-4.7-1.3-6-2-2-3.3-2-2.3.7-3.2,2-1.3,3.3-1.3,6Z"/>
            <path class="st1" d="M400.6,190.3c0-3.6.7-6.3,2.1-8.2,1.4-1.8,3.1-2.8,5.2-2.8s3.8.9,5.2,2.8c1.4,1.8,2.1,4.5,2.1,8s-.7,6.6-2,8.4c-1.4,1.8-3.1,2.8-5.2,2.8s-3.8-.9-5.2-2.8c-1.4-1.8-2.1-4.6-2.1-8.2ZM403.3,190.3c0,2.7.4,4.7,1.3,6.1s2,2,3.3,2,2.3-.7,3.2-2,1.3-3.3,1.3-6-.4-4.7-1.3-6-2-2-3.3-2-2.3.7-3.2,2-1.3,3.3-1.3,6Z"/>
            <path class="st1" d="M418.1,200.8v-28.9h2.6v28.9h-2.6Z"/>
            <path class="st1" d="M448.7,190.6l2.8,1c-.6,3.2-1.7,5.7-3.3,7.3-1.6,1.6-3.5,2.4-5.7,2.4s-3.7-.5-5.1-1.6c-1.4-1.1-2.6-2.8-3.4-5.2-.9-2.4-1.3-5.2-1.3-8.4s.4-5.9,1.3-8.1,2.1-3.9,3.6-5c1.5-1.1,3.2-1.7,5.1-1.7s3.8.7,5.3,2.1,2.5,3.5,3.1,6.3l-2.8.9c-.9-4-2.9-6-5.7-6s-2.7.4-3.7,1.2c-1,.8-1.9,2.1-2.5,3.8-.6,1.7-.9,3.9-.9,6.5,0,4,.6,6.9,1.9,8.9s2.9,3,5,3,2.9-.6,4-1.8,1.9-3.1,2.2-5.5Z"/>
            <path class="st1" d="M453.7,190.3c0-3.6.7-6.3,2.1-8.2,1.4-1.8,3.1-2.8,5.2-2.8s3.8.9,5.2,2.8c1.4,1.8,2.1,4.5,2.1,8s-.7,6.6-2,8.4c-1.4,1.8-3.1,2.8-5.2,2.8s-3.8-.9-5.2-2.8c-1.4-1.8-2.1-4.6-2.1-8.2ZM456.4,190.3c0,2.7.4,4.7,1.3,6.1s2,2,3.3,2,2.3-.7,3.2-2,1.3-3.3,1.3-6-.4-4.7-1.3-6-2-2-3.3-2-2.3.7-3.2,2-1.3,3.3-1.3,6Z"/>
            <path class="st1" d="M471.3,200.8v-21h2.4v3.2c.6-1.5,1.2-2.5,1.7-2.9.5-.5,1.1-.7,1.7-.7s1.8.4,2.7,1.1l-.9,3.3c-.7-.5-1.3-.8-1.9-.8s-1.1.2-1.5.7c-.5.4-.8,1-1,1.8-.3,1.4-.5,2.8-.5,4.3v11h-2.6Z"/>
            <path class="st1" d="M481.2,208.8v-29h2.4v2.7c.6-1.1,1.2-1.9,2-2.4s1.5-.8,2.5-.8,2.3.4,3.3,1.2c1,.8,1.8,2,2.4,3.7.6,1.6.9,3.6.9,5.9,0,3.6-.7,6.3-2,8.2-1.3,1.9-2.9,2.9-4.7,2.9s-1.6-.2-2.3-.7c-.7-.5-1.3-1.1-1.8-2v10.2h-2.6ZM483.6,190.4c0,2.7.4,4.7,1.2,6,.8,1.3,1.8,1.9,3,1.9s2.1-.7,2.9-2c.8-1.3,1.3-3.4,1.3-6.2s-.4-4.8-1.2-6.1c-.8-1.3-1.8-2-3-2s-2,.7-2.9,2.1c-.9,1.4-1.3,3.5-1.3,6.2Z"/>
            <path class="st1" d="M496.8,190.3c0-3.6.7-6.3,2.1-8.2,1.4-1.8,3.1-2.8,5.2-2.8s3.8.9,5.2,2.8c1.4,1.8,2.1,4.5,2.1,8s-.7,6.6-2,8.4c-1.4,1.8-3.1,2.8-5.2,2.8s-3.8-.9-5.2-2.8c-1.4-1.8-2.1-4.6-2.1-8.2ZM499.5,190.3c0,2.7.4,4.7,1.3,6.1s2,2,3.3,2,2.3-.7,3.2-2,1.3-3.3,1.3-6-.4-4.7-1.3-6-2-2-3.3-2-2.3.7-3.2,2-1.3,3.3-1.3,6Z"/>
            <path class="st1" d="M514.4,200.8v-21h2.4v3.2c.6-1.5,1.2-2.5,1.7-2.9.5-.5,1.1-.7,1.7-.7s1.8.4,2.7,1.1l-.9,3.3c-.7-.5-1.3-.8-1.9-.8s-1.1.2-1.5.7c-.5.4-.8,1-1,1.8-.3,1.4-.5,2.8-.5,4.3v11h-2.6Z"/>
            <path class="st1" d="M534.4,198.2c-.9,1-1.8,1.8-2.7,2.3-.9.5-1.9.8-2.9.8-1.6,0-2.9-.5-3.9-1.6-1-1.1-1.4-2.5-1.4-4.4s.2-2.3.7-3.2c.5-.9,1.1-1.7,1.8-2.2.8-.5,2-.9,3.6-1.2,2.1-.3,3.7-.8,4.7-1.2v-.9c0-1.4-.2-2.4-.7-3-.7-.8-1.7-1.3-3-1.3s-2.1.3-2.7.8c-.6.6-1,1.6-1.3,3.2l-2.6-.5c.4-2.2,1.1-3.9,2.2-4.9s2.7-1.5,4.8-1.5,2.9.3,3.8,1c.9.7,1.5,1.5,1.7,2.5.2,1,.4,2.5.4,4.4v4.7c0,3.3,0,5.4.2,6.3.1.9.3,1.7.7,2.5h-2.7c-.3-.7-.5-1.6-.5-2.6ZM534.1,190.3c-1,.5-2.4,1-4.3,1.3-1.1.2-1.9.5-2.3.7-.4.3-.8.7-1,1.1-.2.5-.4,1.1-.4,1.7,0,1,.3,1.8.8,2.4s1.3.9,2.3.9,1.8-.3,2.5-.8c.8-.5,1.3-1.3,1.7-2.2.4-.9.6-2.2.6-3.9v-1.3Z"/>
            <path class="st1" d="M546.7,197.6l.4,3.1c-.7.2-1.4.3-2,.3-.9,0-1.6-.2-2.2-.6-.6-.4-.9-1-1.1-1.6-.2-.7-.3-2.1-.3-4.2v-12.1h-1.9v-2.8h1.9v-5.2l2.6-2.1v7.3h2.6v2.8h-2.6v12.3c0,1.1,0,1.9.2,2.2.2.5.6.7,1.3.7s.7,0,1.2-.1Z"/>
            <path class="st1" d="M549.2,175.9v-4.1h2.6v4.1h-2.6ZM549.2,200.8v-21h2.6v21h-2.6Z"/>
            <path class="st1" d="M554.8,190.3c0-3.6.7-6.3,2.1-8.2,1.4-1.8,3.1-2.8,5.2-2.8s3.8.9,5.2,2.8c1.4,1.8,2.1,4.5,2.1,8s-.7,6.6-2,8.4c-1.4,1.8-3.1,2.8-5.2,2.8s-3.8-.9-5.2-2.8c-1.4-1.8-2.1-4.6-2.1-8.2ZM557.5,190.3c0,2.7.4,4.7,1.3,6.1s2,2,3.3,2,2.3-.7,3.2-2,1.3-3.3,1.3-6-.4-4.7-1.3-6-2-2-3.3-2-2.3.7-3.2,2-1.3,3.3-1.3,6Z"/>
            <path class="st1" d="M572.4,200.8v-21h2.4v3c.6-1.2,1.3-2,2.1-2.6.8-.6,1.8-.9,2.8-.9s1.6.2,2.3.5c.7.4,1.3.8,1.7,1.4.4.6.8,1.3,1,2.3.2.9.3,2.4.3,4.3v12.9h-2.6v-12.8c0-1.5-.1-2.7-.4-3.4s-.6-1.3-1.1-1.6c-.5-.4-1.1-.6-1.8-.6-1.3,0-2.3.5-3,1.6-.7,1-1.1,2.8-1.1,5.4v11.5h-2.6Z"/>
          </g>
        </g>
      </g>
    </g>
  </g>
</svg>