<?xml version="1.0" encoding="UTF-8"?><svg xmlns="http://www.w3.org/2000/svg" viewBox="0 0 622.8 272.16"><defs><style>.cls-1{fill:#e31e24;}.cls-2{fill:#231f20;font-family:ArialNarrow, 'Arial Narrow';font-size:39.77px;}.cls-3{fill:#272324;}.cls-4{fill:#272425;}.cls-5{letter-spacing:-.06em;}.cls-6{fill:#e31b23;font-family:Arial-BoldMT, Arial;font-size:48.61px;font-weight:700;}</style></defs><g id="Layer_0_Image"><path class="cls-3" d="M456.05,35.78c-9.1,5.74-14.25,13.87-16.82,23.82-.55,0-1.03,0-1.51,0-31.16,0-62.32-.01-93.48.02-3.76,0-7.49.4-10.8,2.46-2.86,1.78-4.38,4.37-4.29,7.76.04,1.74.1,3.54.59,5.19,1.03,3.43,3.92,4.87,7.14,5.37,3.97.62,7.99,1.16,11.99,1.22,13.91.22,27.83.09,41.74.34,7.42.13,14.84.59,22.23,1.21,5.5.46,10.93,1.51,16.16,3.47,8.47,3.17,13.2,9.33,14.84,18.07,1.55,8.26,1.53,16.58.77,24.92-.37,4.03-1.15,7.95-2.8,11.66-2.61,5.84-7.28,9.36-13.17,11.38-5.33,1.83-10.8,2.92-16.49,2.92-50.12-.03-100.24-.02-150.36-.02h-1.6c1.15-2.15,2.24-4.2,3.34-6.25,2.95-5.49,5.92-10.98,8.83-16.5.46-.88.99-1.13,1.94-1.13,39.08.02,78.16.03,117.24,0,3.5,0,7.01-.06,10.4-1.22,4.15-1.42,6.37-4.33,6.82-8.6.14-1.34.15-2.74-.05-4.07-.66-4.45-3.05-6.96-7.95-7.78-4.43-.74-8.93-1.34-13.41-1.44-14.38-.32-28.78-.25-43.16-.59-7.45-.18-14.9-.72-22.32-1.45-5.61-.55-11.15-1.71-16.29-4.24-4.94-2.43-8.29-6.21-9.81-11.54-.14-.51-.11-1.2.13-1.66,8.32-15.55,16.67-31.08,25.02-46.61,1.07-2,2.11-4.01,3.24-5.98.2-.35.75-.52,1.16-.72.16-.08.39-.01.59-.01h130.14Z"/><path class="cls-3" d="M199.34,155.5H24.61V35.86c.32-.02.66-.06,1-.06,36.16,0,72.31,0,108.47.02.45,0,1.12.26,1.31.61,4.53,8.34,9.01,16.71,13.49,25.08.05.1.08.21.17.44H59.9v21.58h60.76v23.14h-60.74v21.67c.48,0,.95,0,1.42,0,40.67,0,81.35,0,122.02-.02,1.05,0,1.6.28,2.11,1.24,4.45,8.39,8.97,16.73,13.46,25.09.13.24.24.49.41.84Z"/><path class="cls-3" d="M600.33,126.66v28.89c-.47,0-.93,0-1.4,0-40.64,0-81.27-.03-121.91.05-4.08,0-7.87-.73-11.6-2.2-6.15-2.42-11.38-6.03-15.19-11.53-.49-.71-.64-1.31-.37-2.19,1.51-5.03,2.15-10.21,2.17-15.44.02-4.59.05-9.19-.27-13.76-.51-7.22-1.92-14.28-6.5-20.14-1.62-2.07-2.1-4.08-2-6.54.15-3.83-.03-7.68.18-11.51.37-6.88,1.63-13.57,4.89-19.74,4.22-8,11.05-12.76,19.45-15.54,2.55-.84,5.11-1.28,7.83-1.27,41.08.05,82.15.03,123.23.03h1.48v28.86c-.44,0-.9,0-1.36,0-31.52,0-63.03-.01-94.55.02-3.46,0-6.9.38-10.27,1.35-6.46,1.85-10.3,6.13-11.59,12.62-.57,2.87-.88,5.84-.95,8.77-.13,6.12-.18,12.24.04,18.35.12,3.31.63,6.66,1.38,9.9,1.35,5.82,5.35,9.1,11.09,10.15,2.92.54,5.93.84,8.9.85,31.92.06,63.83.04,95.75.04.48,0,.96,0,1.57,0Z"/><path class="cls-4" d="M237.61,139.12c-.8-2.61-1.67-5.03-2.29-7.51-1.57-6.34-.76-12.33,2.52-18.07,2.03-3.55,4.89-6.27,7.79-9.01,3.95-3.73,7.89-7.48,10.9-12.07,3.47-5.28,5.56-11.06,6.14-17.35.28-3.06.46-6.12.68-9.18.01-.16.04-.33,0-.48-.7-2.39.47-4.27,1.57-6.22,4.24-7.51,8.4-15.07,12.62-22.59.21-.37.72-.8,1.09-.8,12.56-.04,25.12-.03,37.88-.03-.94,1.74-1.83,3.36-2.7,4.99-20.33,37.87-40.66,75.73-60.96,113.62-.48.9-1,1.17-2,1.17-14.12-.04-28.24-.03-42.36,0-.81,0-1.24-.22-1.63-.96-17.52-32.66-35.06-65.3-52.6-97.95-3.7-6.89-7.4-13.78-11.17-20.8.4-.02.69-.06.98-.06,12.16,0,24.32,0,36.48-.02.78,0,1.17.22,1.54.93,5.26,10.06,10.57,20.1,15.84,30.16.24.46.4,1.06.36,1.57-1.07,12.51,1.25,24.41,6.6,35.72,7.06,14.93,18.27,26.06,32.14,34.72.13.08.29.12.57.22Z"/><path class="cls-1" d="M231.08,130.29c-5.38-4.34-10.01-9.4-13.99-15.04-6.46-9.14-10.84-19.19-12.64-30.24-2.32-14.23-.04-27.6,8.66-39.38,3.19-4.32,6.99-8.21,10.72-12.09,3.63-3.79,6.87-7.74,8.43-12.87,1.16-3.84,1.47-7.73.92-11.69-.01-.11.02-.22.07-.65,2.02,3.17,3.97,6.07,5.76,9.07,2.16,3.62,4.34,7.25,5.4,11.38,1.93,7.49.56,14.52-3.06,21.22-2.61,4.83-6.15,8.92-10.09,12.7-4.21,4.04-8.27,8.23-11.28,13.29-3.44,5.78-4.12,11.97-2.79,18.46.31,1.52.7,3.02,1.08,4.52.12.48.35.92.48,1.27.43-3.43.73-6.93,1.35-10.36.97-5.38,3.78-9.85,7.46-13.8,4-4.3,8.12-8.49,12.09-12.81,5.06-5.51,8.4-11.9,9.24-19.4.3-2.63.05-5.32.05-8.11.79,1.62,1.61,3.19,2.34,4.79,3.21,7.05,5.6,14.36,6.79,22.04,1.69,10.97-.7,20.86-8.03,29.31-3.37,3.89-7.07,7.5-10.65,11.2-2.42,2.51-4.67,5.13-6.21,8.3-2.73,5.59-3.33,11.42-2.09,17.47.08.39.15.78.22,1.17-.07.08-.14.15-.22.23Z"/><path class="cls-1" d="M231.3,130.06c.04.14.08.27.12.41-.11-.06-.23-.12-.34-.18.07-.08.14-.15.22-.23Z"/><text class="cls-2" transform="translate(22.47 201.53) scale(.92 1)"><tspan x="0" y="0">Evansville </tspan><tspan class="cls-5" x="155.89" y="0">V</tspan><tspan x="175.25" y="0">anderburgh School Corporation</tspan></text></g><g id="Bringing_Learning_to_Life"><text class="cls-6" transform="translate(22.07 251.83)"><tspan x="0" y="0">Bringing Learning to Life</tspan></text></g></svg>