<?xml version="1.0" encoding="UTF-8"?><svg id="a" xmlns="http://www.w3.org/2000/svg" viewBox="0 0 576.61 253.7"><g id="b"><g isolation="isolate"><g isolation="isolate"><g isolation="isolate"><path d="M.4,208.5h14c2.8,0,4.8.1,6.2.3,1.4.2,2.6.7,3.7,1.4,1.1.7,2,1.7,2.7,2.9s1.1,2.6,1.1,4.1-.4,3.1-1.3,4.5c-.9,1.4-2.1,2.4-3.6,3.1,2.1.6,3.8,1.7,4.9,3.2,1.1,1.5,1.7,3.3,1.7,5.3s-.4,3.1-1.1,4.6c-.7,1.5-1.8,2.7-3,3.6-1.3.9-2.9,1.5-4.7,1.7-1.2.1-4,.2-8.5.2H.6v-35h-.2q0,.07,0,0v.1ZM7.5,214.4v8.1h4.6c2.8,0,4.5,0,5.1-.1,1.2-.1,2.2-.6,2.9-1.3.7-.7,1-1.6,1-2.7s-.3-2-.9-2.6c-.6-.7-1.5-1.1-2.7-1.2-.7,0-2.7-.1-6-.1h-4.1.1q0-.07,0,0v-.1ZM7.5,228.3v9.4h6.5c2.5,0,4.2,0,4.9-.2,1.1-.2,1.9-.7,2.6-1.4s1-1.7,1-3-.3-1.9-.8-2.7c-.5-.7-1.2-1.3-2.2-1.6s-3.1-.5-6.3-.5h-5.7Z" fill="#e31b23"/><path d="M42.1,243.6h-6.7v-25.4h6.2v3.6c1.1-1.7,2-2.8,2.9-3.4.9-.5,1.8-.8,2.9-.8s3,.4,4.4,1.3l-2.1,5.9c-1.1-.7-2.2-1.1-3.2-1.1s-1.7.3-2.4.8-1.2,1.5-1.5,2.8-.6,4.2-.6,8.5v7.8h.1Z" fill="#e31b23"/><path d="M54.7,214.8v-6.2h6.7v6.2s-6.7,0-6.7,0ZM54.7,243.6v-25.4h6.7v25.4s-6.7,0-6.7,0Z" fill="#e31b23"/><path d="M91.4,243.6h-6.7v-13c0-2.7,0-4.5-.4-5.3s-.8-1.4-1.4-1.9c-.6-.4-1.4-.7-2.3-.7s-2.2.3-3.1,1-1.6,1.5-1.9,2.5c-.3,1.1-.5,3-.5,5.8v11.5h-6.7v-25.4h6.2v3.7c2.2-2.9,5-4.3,8.4-4.3s2.8.3,4.1.8c1.2.5,2.2,1.2,2.8,2,.6.8,1.1,1.8,1.3,2.8s.4,2.6.4,4.5v15.8l-.2.2h0Z" fill="#e31b23"/><path d="M97.6,245.3l7.7.9c0,.9.4,1.5.9,1.8.6.5,1.6.7,3,.7s3.1-.3,3.9-.8c.6-.4,1-.9,1.3-1.7.2-.6.3-1.6.3-3.1v-3.7c-2,2.7-4.5,4.1-7.6,4.1s-6.1-1.4-8.1-4.3c-1.6-2.3-2.3-5.1-2.3-8.5s1-7.5,3.1-9.8c2-2.2,4.6-3.4,7.6-3.4s5.7,1.4,7.8,4.1v-3.6h6.3v22.8c0,3-.2,5.2-.7,6.7-.5,1.5-1.2,2.6-2.1,3.5s-2.1,1.5-3.6,2-3.4.7-5.7.7c-4.3,0-7.4-.7-9.2-2.2-1.8-1.5-2.7-3.3-2.7-5.6s0-.5,0-.8v.2h.1ZM103.6,230.4c0,2.7.5,4.7,1.6,5.9,1,1.3,2.3,1.9,3.9,1.9s3-.6,4.2-1.9c1.1-1.3,1.7-3.2,1.7-5.7s-.5-4.6-1.6-5.9c-1.1-1.3-2.5-1.9-4.1-1.9s-2.9.6-4,1.9c-1,1.3-1.6,3.2-1.6,5.7h-.1Z" fill="#e31b23"/><path d="M128.1,214.8v-6.2h6.7v6.2h-6.7ZM128.1,243.6v-25.4h6.7v25.4h-6.7Z" fill="#e31b23"/><path d="M164.8,243.6h-6.7v-13c0-2.7-.1-4.5-.4-5.3-.3-.8-.8-1.4-1.4-1.9-.6-.4-1.4-.7-2.3-.7s-2.2.3-3.1,1-1.6,1.5-1.9,2.5c-.3,1.1-.5,3-.5,5.8v11.5h-6.7v-25.4h6.2v3.7c2.2-2.9,5-4.3,8.4-4.3s2.8.3,4.1.8c1.2.5,2.2,1.2,2.8,2s1.1,1.8,1.3,2.8.4,2.6.4,4.5v15.8l-.2.2h0Z" fill="#e31b23"/><path d="M171,245.3l7.7.9c.1.9.4,1.5.9,1.8.6.5,1.6.7,3,.7s3.1-.3,3.9-.8c.6-.4,1-.9,1.3-1.7.2-.6.3-1.6.3-3.1v-3.7c-2,2.7-4.5,4.1-7.6,4.1s-6.1-1.4-8.1-4.3c-1.6-2.3-2.3-5.1-2.3-8.5s1-7.5,3.1-9.8c2-2.2,4.6-3.4,7.6-3.4s5.7,1.4,7.8,4.1v-3.6h6.3v22.8c0,3-.2,5.2-.7,6.7-.5,1.5-1.2,2.6-2.1,3.5s-2.1,1.5-3.6,2-3.4.7-5.7.7c-4.3,0-7.4-.7-9.2-2.2s-2.7-3.3-2.7-5.6,0-.5,0-.8v.2h.1ZM177,230.4c0,2.7.5,4.7,1.6,5.9,1,1.3,2.3,1.9,3.9,1.9s3-.6,4.2-1.9c1.1-1.3,1.7-3.2,1.7-5.7s-.5-4.6-1.6-5.9c-1.1-1.3-2.5-1.9-4.1-1.9s-2.9.6-4,1.9c-1,1.3-1.6,3.2-1.6,5.7h-.1,0Z" fill="#e31b23"/><path d="M215.4,243.6v-34.8h7.1v28.9h17.6v5.9h-24.7Z" fill="#e31b23"/><path d="M259.7,235.5l6.7,1.1c-.9,2.5-2.2,4.3-4.1,5.6s-4.2,1.9-7,1.9c-4.4,0-7.7-1.4-9.8-4.3-1.7-2.3-2.5-5.2-2.5-8.7s1.1-7.5,3.3-9.9c2.2-2.4,5-3.6,8.3-3.6s6.8,1.2,8.9,3.7,3.2,6.3,3.1,11.5h-16.8c0,2,.6,3.5,1.6,4.6s2.3,1.7,3.9,1.7,1.9-.3,2.7-.9c.7-.6,1.3-1.5,1.6-2.8h.1q0,.07,0,0v.1ZM260.1,228.7c0-1.9-.5-3.4-1.5-4.4s-2.1-1.5-3.5-1.5-2.7.5-3.6,1.6-1.4,2.5-1.4,4.3h10Z" fill="#e31b23"/><path d="M277.3,225.9l-6.1-1.1c.7-2.5,1.9-4.3,3.5-5.4,1.7-1.2,4.2-1.8,7.5-1.8s5.2.4,6.7,1.1c1.5.7,2.5,1.6,3.1,2.7.6,1.1.9,3.1.9,6v7.8c0,2.2,0,3.9.3,4.9.2,1.1.6,2.2,1.2,3.4h-6.6c-.2-.4-.4-1.1-.6-2-.1-.4-.2-.7-.2-.8-1.1,1.1-2.4,2-3.7,2.5-1.3.6-2.7.8-4.2.8-2.6,0-4.7-.7-6.2-2.1-1.5-1.4-2.3-3.2-2.3-5.4s.3-2.7,1-3.8,1.6-2,2.9-2.6,3-1.1,5.3-1.6c3.1-.6,5.3-1.1,6.5-1.6v-.7c0-1.3-.3-2.2-1-2.8s-1.8-.8-3.6-.8-2.1.2-2.8.7c-.7.5-1.2,1.3-1.6,2.5h0v.1h0ZM286.3,231.4c-.9.3-2.2.6-4.1,1s-3.1.8-3.7,1.2c-.9.6-1.3,1.4-1.3,2.4s.4,1.8,1.1,2.4c.7.7,1.6,1,2.7,1s2.4-.4,3.5-1.2c.8-.6,1.3-1.3,1.6-2.2.2-.6.3-1.7.3-3.3v-1.3h-.1Z" fill="#e31b23"/><path d="M305.9,243.6h-6.7v-25.4h6.2v3.6c1.1-1.7,2-2.8,2.9-3.4.9-.5,1.8-.8,2.9-.8s3,.4,4.4,1.3l-2.1,5.9c-1.1-.7-2.2-1.1-3.2-1.1s-1.7.3-2.4.8c-.7.5-1.2,1.5-1.5,2.8-.4,1.4-.6,4.2-.6,8.5v7.8h.1Z" fill="#e31b23"/><path d="M341.6,243.6h-6.7v-13c0-2.7-.1-4.5-.4-5.3s-.8-1.4-1.4-1.9c-.6-.4-1.4-.7-2.3-.7s-2.2.3-3.1,1c-.9.6-1.6,1.5-1.9,2.5s-.5,3-.5,5.8v11.5h-6.7v-25.4h6.2v3.7c2.2-2.9,5-4.3,8.4-4.3s2.8.3,4.1.8c1.2.5,2.2,1.2,2.8,2,.6.8,1.1,1.8,1.3,2.8s.4,2.6.4,4.5v15.8l-.2.2h0Z" fill="#e31b23"/><path d="M348.4,214.8v-6.2h6.7v6.2h-6.7ZM348.4,243.6v-25.4h6.7v25.4h-6.7Z" fill="#e31b23"/><path d="M385.1,243.6h-6.7v-13c0-2.7-.1-4.5-.4-5.3s-.8-1.4-1.4-1.9c-.6-.4-1.4-.7-2.3-.7s-2.2.3-3.1,1c-.9.6-1.6,1.5-1.9,2.5s-.5,3-.5,5.8v11.5h-6.7v-25.4h6.2v3.7c2.2-2.9,5-4.3,8.4-4.3s2.8.3,4.1.8c1.2.5,2.2,1.2,2.8,2,.6.8,1.1,1.8,1.3,2.8s.4,2.6.4,4.5v15.8l-.2.2h0Z" fill="#e31b23"/><path d="M391.3,245.3l7.7.9c.1.9.4,1.5.9,1.8.6.5,1.6.7,3,.7s3.1-.3,3.9-.8c.6-.4,1-.9,1.3-1.7.2-.6.3-1.6.3-3.1v-3.7c-2,2.7-4.5,4.1-7.6,4.1s-6.1-1.4-8.1-4.3c-1.6-2.3-2.3-5.1-2.3-8.5s1-7.5,3.1-9.8c2-2.2,4.6-3.4,7.6-3.4s5.7,1.4,7.8,4.1v-3.6h6.3v22.8c0,3-.2,5.2-.7,6.7-.5,1.5-1.2,2.6-2.1,3.5-.9.8-2.1,1.5-3.6,2s-3.4.7-5.7.7c-4.3,0-7.4-.7-9.2-2.2s-2.7-3.3-2.7-5.6,0-.5,0-.8v.2c.07,0,.1,0,.1,0h0ZM397.3,230.4c0,2.7.5,4.7,1.6,5.9s2.3,1.9,3.9,1.9,3-.6,4.2-1.9c1.1-1.3,1.7-3.2,1.7-5.7s-.5-4.6-1.6-5.9c-1.1-1.3-2.5-1.9-4.1-1.9s-2.9.6-4,1.9-1.6,3.2-1.6,5.7h-.1Z" fill="#e31b23"/><path d="M447.1,218.2v5.4h-4.6v10.2c0,2.1,0,3.3.1,3.6,0,.3.3.6.6.8.3.2.7.3,1.1.3s1.5-.2,2.7-.6l.6,5.2c-1.6.7-3.3,1-5.3,1s-2.3-.2-3.3-.6c-1-.4-1.7-.9-2.1-1.6s-.8-1.5-.9-2.6c-.1-.8-.2-2.4-.2-4.7v-11.1h-3.1v-5.4h3.1v-5l6.7-3.9v9h4.6,0Z" fill="#e31b23"/><path d="M450.2,230.5c0-2.2.5-4.4,1.6-6.5s2.7-3.7,4.7-4.8,4.3-1.6,6.8-1.6c3.8,0,7,1.2,9.4,3.7s3.7,5.6,3.7,9.5-1.2,7-3.7,9.5-5.6,3.8-9.4,3.8-4.5-.5-6.7-1.6c-2.1-1.1-3.7-2.6-4.8-4.6s-1.6-4.5-1.6-7.4h0ZM457.1,230.9c0,2.5.6,4.4,1.8,5.8,1.2,1.3,2.7,2,4.4,2s3.2-.7,4.4-2c1.2-1.3,1.8-3.3,1.8-5.8s-.6-4.4-1.8-5.7c-1.2-1.3-2.7-2-4.4-2s-3.2.7-4.4,2c-1.2,1.3-1.8,3.3-1.8,5.8h0v-.1Z" fill="#e31b23"/><path d="M495.5,243.6v-34.8h7.1v28.9h17.6v5.9h-24.7Z" fill="#e31b23"/><path d="M525.1,214.8v-6.2h6.7v6.2h-6.7ZM525.1,243.6v-25.4h6.7v25.4h-6.7Z" fill="#e31b23"/><path d="M535.8,218.2h3.7v-1.9c0-2.1.2-3.7.7-4.8s1.3-1.9,2.5-2.6c1.2-.7,2.8-1,4.6-1s3.8.3,5.6.9l-.9,4.7c-1.1-.3-2.1-.4-3.1-.4s-1.7.2-2.1.7c-.4.5-.6,1.3-.6,2.6v1.8h5v5.3h-5v20.1h-6.7v-20.1h-3.7v-5.3Z" fill="#e31b23"/><path d="M569.7,235.5l6.7,1.1c-.9,2.5-2.2,4.3-4.1,5.6-1.9,1.3-4.2,1.9-7,1.9-4.4,0-7.7-1.4-9.8-4.3-1.7-2.3-2.5-5.2-2.5-8.7s1.1-7.5,3.3-9.9,5-3.6,8.3-3.6,6.8,1.2,8.9,3.7c2.2,2.5,3.2,6.3,3.1,11.5h-16.8c0,2,.6,3.5,1.6,4.6s2.3,1.7,3.9,1.7,1.9-.3,2.7-.9c.7-.6,1.3-1.5,1.6-2.8h0q0,.07,0,0l.1.1ZM570.1,228.7c0-1.9-.5-3.4-1.5-4.4s-2.1-1.5-3.5-1.5-2.7.5-3.6,1.6-1.4,2.5-1.4,4.3h10Z" fill="#e31b23"/></g></g></g><path d="M431.4,27.5c-9.1,5.7-14.2,13.9-16.8,23.8h-95c-3.8,0-7.5.4-10.8,2.5-2.9,1.8-4.4,4.4-4.3,7.8,0,1.7.1,3.5.6,5.2,1,3.4,3.9,4.9,7.1,5.4,4,.6,8,1.2,12,1.2,13.9.2,27.8,0,41.7.3,7.4,0,14.8.6,22.2,1.2,5.5.5,10.9,1.5,16.2,3.5,8.5,3.2,13.2,9.3,14.8,18.1,1.6,8.3,1.5,16.6.8,24.9-.4,4-1.1,7.9-2.8,11.7-2.6,5.8-7.3,9.4-13.2,11.4-5.3,1.8-10.8,2.9-16.5,2.9h-152c1.1-2.2,2.2-4.2,3.3-6.2,2.9-5.5,5.9-11,8.8-16.5.5-.9,1-1.1,1.9-1.1h117.2c3.5,0,7,0,10.4-1.2,4.1-1.4,6.4-4.3,6.8-8.6.1-1.3.1-2.7,0-4.1-.7-4.4-3.1-7-7.9-7.8-4.4-.7-8.9-1.3-13.4-1.4-14.4-.3-28.8-.2-43.2-.6-7.4-.2-14.9-.7-22.3-1.4-5.6-.6-11.1-1.7-16.3-4.2-4.9-2.4-8.3-6.2-9.8-11.5-.1-.5-.1-1.2.1-1.7,8.3-15.6,16.7-31.1,25-46.6,1.1-2,2.1-4,3.2-6,.2-.3.8-.5,1.2-.7h130.7l.3-.3h0Z" fill="#272324"/><path d="M174.7,147.2H0V27.6h109.5c.4,0,1.1.3,1.3.6,4.5,8.3,9,16.7,13.5,25.1,0,0,0,.2.2.4H35.2v21.6h60.8v23.1h-60.7v21.7h123.4c1.1,0,1.6.3,2.1,1.2,4.4,8.4,9,16.7,13.5,25.1.1.2.2.5.4.8h0Z" fill="#272324"/><path d="M575.7,118.4v28.9h-123.3c-4.1,0-7.9-.7-11.6-2.2-6.1-2.4-11.4-6-15.2-11.5-.5-.7-.6-1.3-.4-2.2,1.5-5,2.1-10.2,2.2-15.4,0-4.6,0-9.2-.3-13.8-.5-7.2-1.9-14.3-6.5-20.1-1.6-2.1-2.1-4.1-2-6.5.1-3.8,0-7.7.2-11.5.4-6.9,1.6-13.6,4.9-19.7,4.2-8,11.1-12.8,19.4-15.5,2.6-.8,5.1-1.3,7.8-1.3h124.7v28.9h-96c-3.5,0-6.9.4-10.3,1.3-6.5,1.8-10.3,6.1-11.6,12.6-.6,2.9-.9,5.8-.9,8.8-.1,6.1-.2,12.2,0,18.3.1,3.3.6,6.7,1.4,9.9,1.4,5.8,5.4,9.1,11.1,10.2,2.9.5,5.9.8,8.9.8,0,0,97.5,0,97.5,0Z" fill="#272324"/><path d="M213,130.8c-.8-2.6-1.7-5-2.3-7.5-1.6-6.3-.8-12.3,2.5-18.1,2-3.6,4.9-6.3,7.8-9,3.9-3.7,7.9-7.5,10.9-12.1,3.5-5.3,5.6-11.1,6.1-17.3.3-3.1.5-6.1.7-9.2v-.5c-.7-2.4.5-4.3,1.6-6.2,4.2-7.5,8.4-15.1,12.6-22.6.2-.4.7-.8,1.1-.8h37.9c-.9,1.7-1.8,3.4-2.7,5-20.3,37.9-40.7,75.7-61,113.6-.5.9-1,1.2-2,1.2h-42.4c-.8,0-1.2-.2-1.6-1-17.5-32.7-35.1-65.3-52.6-97.9-3.7-6.9-7.4-13.8-11.2-20.8h37.5c.8,0,1.2.2,1.5.9,5.3,10.1,10.6,20.1,15.8,30.2.2.5.4,1.1.4,1.6-1.1,12.5,1.2,24.4,6.6,35.7,7.1,14.9,18.3,26.1,32.1,34.7.1,0,.3.1.6.2h.1q0-.07,0,0v-.1Z" fill="#272425"/><path d="M206.4,122c-5.4-4.3-10-9.4-14-15-6.5-9.1-10.8-19.2-12.6-30.2-2.3-14.2,0-27.6,8.7-39.4,3.2-4.3,7-8.2,10.7-12.1,3.6-3.8,6.9-7.7,8.4-12.9,1.2-3.8,1.5-7.7.9-11.7v-.7c2,3.2,4,6.1,5.8,9.1,2.2,3.6,4.3,7.2,5.4,11.4,1.9,7.5.6,14.5-3.1,21.2-2.6,4.8-6.1,8.9-10.1,12.7-4.2,4-8.3,8.2-11.3,13.3-3.4,5.8-4.1,12-2.8,18.5.3,1.5.7,3,1.1,4.5.1.5.4.9.5,1.3.4-3.4.7-6.9,1.4-10.4,1-5.4,3.8-9.8,7.5-13.8,4-4.3,8.1-8.5,12.1-12.8,5.1-5.5,8.4-11.9,9.2-19.4.3-2.6,0-5.3,0-8.1.8,1.6,1.6,3.2,2.3,4.8,3.2,7.1,5.6,14.4,6.8,22,1.7,11-.7,20.9-8,29.3-3.4,3.9-7.1,7.5-10.6,11.2-2.4,2.5-4.7,5.1-6.2,8.3-2.7,5.6-3.3,11.4-2.1,17.5,0,.4.1.8.2,1.2,0,0-.1.2-.2.2h0Z" fill="#e31e24"/><path d="M206.6,121.8c0,.1,0,.3.1.4-.1,0-.2-.1-.3-.2,0,0,.1-.2.2-.2Z" fill="#e31e24"/><path d="M.2,193.4v-28.9h15.4v3.4H3v8.8h11.8v3.4H3v9.8h13.1v3.4H.2s0,.1,0,.1Z" fill="#231f20"/><path d="M24,193.4l-5.9-21h2.8l3.3,12.6c.4,1.4.7,2.8,1,4.2.2-1.1.5-2.4,1-4l3.5-12.8h2.7l-5.9,21h-2.5Z" fill="#231f20"/><path d="M44.7,190.8c-.9,1-1.8,1.8-2.7,2.3s-1.9.8-2.9.8c-1.6,0-2.9-.5-3.9-1.6s-1.4-2.5-1.4-4.4.2-2.3.7-3.2c.4-.9,1.1-1.7,1.8-2.2.8-.5,2-.9,3.6-1.2,2.1-.3,3.7-.8,4.7-1.2v-.9c0-1.4-.2-2.4-.7-3-.7-.8-1.7-1.3-3-1.3s-2.1.3-2.7.8c-.6.6-1,1.6-1.3,3.2l-2.6-.5c.4-2.2,1.1-3.9,2.2-4.9,1.1-1,2.7-1.5,4.8-1.5s2.9.3,3.8,1c.9.7,1.5,1.5,1.7,2.5s.4,2.5.4,4.4v4.7c0,3.3,0,5.4.2,6.3,0,.9.3,1.7.7,2.5h-2.7c-.3-.7-.5-1.6-.5-2.6h-.2,0ZM44.5,182.9c-1,.5-2.4,1-4.3,1.3-1.1.2-1.9.5-2.3.7s-.8.7-1,1.1-.4,1.1-.4,1.7c0,1,.3,1.8.8,2.4.6.6,1.3.9,2.3.9s1.8-.3,2.5-.8c.8-.5,1.3-1.3,1.7-2.2s.6-2.2.6-3.9v-1.3s0,.1.1.1Z" fill="#231f20"/><path d="M51.2,193.4v-21h2.4v3c.6-1.2,1.3-2,2.1-2.6s1.8-.9,2.8-.9,1.6.2,2.3.5c.7.4,1.3.8,1.7,1.4.4.6.8,1.3,1,2.3.2.9.3,2.4.3,4.3v12.9h-2.6v-12.8c0-1.5,0-2.7-.4-3.4s-.6-1.3-1.1-1.6c-.5-.4-1.1-.6-1.7-.6-1.3,0-2.3.5-3,1.6s-1.1,2.8-1.1,5.4v11.5h-2.7Z" fill="#231f20"/><path d="M66.8,187.1l2.6-.6c.2,1.5.6,2.6,1.3,3.3.7.7,1.6,1.1,2.7,1.1s2-.3,2.6-.9c.6-.6.9-1.4.9-2.4s-.3-1.5-.8-1.9c-.4-.3-1.3-.7-2.7-1.2-2-.7-3.4-1.3-4.1-1.8s-1.2-1.1-1.6-2c-.4-.8-.6-1.7-.6-2.8,0-1.8.5-3.2,1.5-4.4,1-1.1,2.5-1.7,4.3-1.7s2.2.2,3,.7c.9.5,1.5,1.1,2,1.9.5.8.8,1.9,1,3.3l-2.6.5c-.2-2.3-1.4-3.4-3.4-3.4s-2,.3-2.5.8c-.6.5-.8,1.2-.8,1.9s.3,1.4.8,1.8c.3.3,1.3.7,2.8,1.3,2.2.8,3.6,1.4,4.2,1.8.6.5,1.1,1.1,1.5,1.9s.5,1.7.5,2.8c0,2-.6,3.6-1.7,4.9-1.1,1.2-2.7,1.9-4.7,1.9-3.7,0-5.9-2.2-6.4-6.7h.2v-.1h0Z" fill="#231f20"/><path d="M87,193.4l-5.9-21h2.8l3.3,12.6c.4,1.4.7,2.8,1,4.2.2-1.1.5-2.4,1-4l3.5-12.8h2.7l-5.9,21h-2.5Z" fill="#231f20"/><path d="M97.6,168.5v-4.1h2.6v4.1h-2.6ZM97.6,193.4v-21h2.6v21h-2.6Z" fill="#231f20"/><path d="M104.2,193.4v-28.9h2.6v28.9h-2.6Z" fill="#231f20"/><path d="M110.8,193.4v-28.9h2.6v28.9h-2.6Z" fill="#231f20"/><path d="M128.1,186.6l2.7.5c-.5,2.2-1.3,3.9-2.4,5.1s-2.6,1.7-4.4,1.7-4-.9-5.3-2.8c-1.4-1.8-2-4.5-2-8s.7-6.4,2.1-8.3,3.1-2.9,5.2-2.9,3.7.9,5,2.8,2,4.6,2,8.1v.9h-11.6c.1,2.4.6,4.1,1.5,5.3s1.9,1.8,3.2,1.8c2,0,3.3-1.4,4.1-4.3h-.1q0,.07,0,0v.1ZM119.5,180.9h8.6c-.1-1.8-.5-3.2-1-4.1-.8-1.3-1.9-2-3.2-2s-2.2.5-3,1.6-1.3,2.5-1.4,4.4h0v.1h0Z" fill="#231f20"/><path d="M151.9,193.4l-8.3-28.9h3.1l5.6,21c.4,1.6.8,3.2,1.1,4.7.3-1.6.7-3.2,1.1-4.7l5.8-21h2.9l-8.3,28.9h-3Z" fill="#231f20"/><path d="M173.6,190.8c-.9,1-1.8,1.8-2.7,2.3s-1.9.8-2.9.8c-1.6,0-2.9-.5-3.9-1.6s-1.4-2.5-1.4-4.4.2-2.3.7-3.2c.4-.9,1.1-1.7,1.8-2.2.8-.5,2-.9,3.6-1.2,2.1-.3,3.7-.8,4.7-1.2v-.9c0-1.4-.2-2.4-.7-3-.7-.8-1.7-1.3-3-1.3s-2.1.3-2.7.8c-.6.6-1,1.6-1.3,3.2l-2.6-.5c.4-2.2,1.1-3.9,2.2-4.9,1.1-1,2.7-1.5,4.8-1.5s2.9.3,3.8,1c.9.7,1.5,1.5,1.7,2.5s.4,2.5.4,4.4v4.7c0,3.3,0,5.4.2,6.3.1.9.3,1.7.7,2.5h-2.7c-.3-.7-.5-1.6-.5-2.6h-.2ZM173.3,182.9c-1,.5-2.4,1-4.3,1.3-1.1.2-1.9.5-2.3.7s-.8.7-1,1.1-.4,1.1-.4,1.7c0,1,.3,1.8.8,2.4.6.6,1.3.9,2.3.9s1.8-.3,2.5-.8c.8-.5,1.3-1.3,1.7-2.2s.6-2.2.6-3.9v-1.3h.1v.1h0Z" fill="#231f20"/><path d="M180.1,193.4v-21h2.4v3c.6-1.2,1.3-2,2.1-2.6s1.8-.9,2.8-.9,1.6.2,2.3.5c.7.4,1.3.8,1.7,1.4.4.6.8,1.3,1,2.3.2.9.3,2.4.3,4.3v12.9h-2.6v-12.8c0-1.5-.1-2.7-.4-3.4s-.6-1.3-1.1-1.6c-.5-.4-1.1-.6-1.7-.6-1.3,0-2.3.5-3,1.6s-1.1,2.8-1.1,5.4v11.5h-2.7Z" fill="#231f20"/><path d="M206.7,193.4v-2.6c-.5,1-1.1,1.8-1.8,2.3s-1.6.8-2.4.8c-1.8,0-3.4-1-4.7-2.9s-2-4.6-2-8.1.3-4.4.9-6.1c.6-1.7,1.4-2.9,2.4-3.7s2.1-1.2,3.3-1.2,1.7.3,2.4.8,1.4,1.2,1.8,2.1v-10.4h2.6v28.9h-2.5q0,.07,0,0v.1ZM198.4,182.9c0,2.7.4,4.7,1.3,6s1.8,2,3,2,2.1-.6,2.9-1.9c.8-1.3,1.2-3.2,1.2-5.7s-.4-5.1-1.2-6.4c-.8-1.3-1.8-2-3.1-2s-2,.6-2.8,1.9c-.8,1.3-1.2,3.3-1.2,6.1h-.1,0Z" fill="#231f20"/><path d="M223.8,186.6l2.7.5c-.5,2.2-1.3,3.9-2.4,5.1s-2.6,1.7-4.4,1.7-4-.9-5.3-2.8c-1.4-1.8-2-4.5-2-8s.7-6.4,2.1-8.3,3.1-2.9,5.2-2.9,3.7.9,5,2.8,2,4.6,2,8.1v.9h-11.6c.1,2.4.6,4.1,1.5,5.3s1.9,1.8,3.2,1.8c2,0,3.3-1.4,4.1-4.3h-.1q0,.07,0,0v.1ZM215.2,180.9h8.6c-.1-1.8-.5-3.2-1-4.1-.8-1.3-1.9-2-3.2-2s-2.2.5-3,1.6-1.3,2.5-1.4,4.4h0v.1h0Z" fill="#231f20"/><path d="M229.8,193.4v-21h2.4v3.2c.6-1.5,1.2-2.5,1.7-2.9.5-.5,1.1-.7,1.7-.7s1.8.4,2.7,1.1l-.9,3.3c-.7-.5-1.3-.8-1.9-.8s-1.1.2-1.5.7c-.5.4-.8,1-1,1.8-.3,1.4-.5,2.8-.5,4.3v11h-2.7Z" fill="#231f20"/><path d="M242.2,193.4h-2.4v-28.9h2.6v10.3c.6-.9,1.2-1.7,1.9-2.1.7-.5,1.5-.7,2.4-.7s2.3.4,3.3,1.2,1.8,2,2.4,3.7c.6,1.6.9,3.6.9,5.9,0,3.6-.7,6.3-2,8.2s-2.9,2.9-4.7,2.9-1.7-.3-2.4-.8-1.3-1.3-1.9-2.3v2.6h-.1,0ZM242.1,182.7c0,2.2.2,3.8.5,4.9.4,1.1.9,1.9,1.5,2.5.7.6,1.4.8,2.2.8s2-.7,2.9-2,1.3-3.4,1.3-6-.4-4.8-1.2-6.1-1.8-1.9-3-1.9-2,.7-2.9,2-1.3,3.3-1.3,5.9h0q0-.07,0,0v-.1Z" fill="#231f20"/><path d="M266.5,193.4v-3.1c-.6,1.2-1.3,2.1-2.1,2.7-.8.6-1.7.9-2.8.9s-2.3-.4-3.1-1.1c-.9-.7-1.4-1.7-1.7-2.8-.3-1.1-.4-2.6-.4-4.6v-13h2.6v11.6c0,2.2,0,3.6.3,4.3.2.7.6,1.3,1.1,1.8s1.1.7,1.8.7c1.3,0,2.3-.6,3.1-1.7.7-1,1-2.8,1-5.4v-11.2h2.6v21h-2.4q0-.07,0,0v-.1Z" fill="#231f20"/><path d="M272.9,193.4v-21h2.4v3.2c.6-1.5,1.2-2.5,1.7-2.9.5-.5,1.1-.7,1.7-.7s1.8.4,2.7,1.1l-.9,3.3c-.7-.5-1.3-.8-1.9-.8s-1.1.2-1.5.7c-.5.4-.8,1-1,1.8-.3,1.4-.5,2.8-.5,4.3v11h-2.7Z" fill="#231f20"/><path d="M282.4,195.1l2.6.5c.1,1.1.5,2,1.1,2.5s1.4.8,2.5.8,2.1-.3,2.7-.9c.7-.6,1.1-1.5,1.4-2.7.2-.7.2-2.3.2-4.7-.6.9-1.2,1.6-1.9,2-.7.5-1.5.7-2.4.7-1.8,0-3.4-.9-4.6-2.6-1.4-2-2.1-4.7-2.1-8s.3-4.2.9-5.9,1.4-2.9,2.4-3.7,2.1-1.2,3.4-1.2,1.7.2,2.5.7,1.4,1.2,2,2.2v-2.5h2.4v18.1c0,3.2-.2,5.5-.7,6.9s-1.2,2.5-2.3,3.3c-1.1.8-2.4,1.2-3.9,1.2s-3.5-.6-4.6-1.8-1.6-2.9-1.6-5h0q0,.07,0,0v.1ZM284.5,182.5c0,2.8.4,4.8,1.2,6,.8,1.3,1.8,1.9,3,1.9s2.2-.6,3-1.9,1.2-3.2,1.2-5.9-.4-4.6-1.3-5.9c-.9-1.3-1.9-1.9-3.1-1.9s-2,.6-2.9,1.9c-.8,1.3-1.2,3.2-1.2,5.7h.1q0,.07,0,0v.1Z" fill="#231f20"/><path d="M299.5,193.4v-28.9h2.6v10.4c.6-1,1.3-1.7,2.1-2.2.8-.5,1.6-.7,2.6-.7,1.6,0,2.9.6,3.9,1.7s1.4,3.3,1.4,6.4v13.3h-2.6v-13.3c0-1.8-.3-3.1-.9-3.9-.6-.8-1.4-1.2-2.4-1.2s-2.1.5-2.9,1.5-1.2,2.8-1.2,5.4v11.5h-2.6Z" fill="#231f20"/><path d="M323.8,184.1l2.7-.3c.1,1.6.5,2.8,1,3.7s1.2,1.6,2.2,2.1c.9.5,2,.8,3.2.8,1.7,0,3-.5,3.9-1.4s1.4-2.1,1.4-3.6-.2-1.6-.5-2.2c-.3-.6-.8-1.2-1.5-1.6-.7-.4-2.2-1-4.4-1.7-2-.7-3.4-1.3-4.3-2s-1.5-1.5-2-2.6c-.5-1-.7-2.2-.7-3.5,0-2.3.7-4.3,2-5.7s3.2-2.2,5.5-2.2,3,.3,4.2,1,2.1,1.7,2.8,3,1,2.8,1.1,4.6l-2.7.3c-.1-1.9-.6-3.3-1.5-4.2s-2.1-1.4-3.7-1.4-2.8.4-3.7,1.2c-.8.8-1.3,1.8-1.3,3.1s.3,2.1.9,2.7,2,1.3,4.2,2c2.1.6,3.6,1.2,4.4,1.7,1.3.7,2.3,1.7,2.9,2.9s1,2.6,1,4.3-.3,3.2-1,4.5c-.7,1.4-1.6,2.4-2.9,3.1-1.2.7-2.6,1.1-4.3,1.1-2.6,0-4.7-.9-6.3-2.6-1.6-1.8-2.4-4.2-2.4-7.2h-.2q0,.07,0,0v.1Z" fill="#231f20"/><path d="M354.4,185.7l2.6.5c-.3,2.5-1,4.4-2.2,5.7s-2.6,2-4.3,2-3.7-.9-5-2.8c-1.3-1.8-2-4.6-2-8.2s.7-6.4,2-8.2,3-2.7,5.1-2.7,2.9.6,4,1.7c1.1,1.1,1.8,2.8,2.1,5l-2.5.5c-.2-1.4-.7-2.5-1.3-3.2-.6-.7-1.4-1.1-2.2-1.1-1.3,0-2.4.6-3.2,1.9-.8,1.3-1.3,3.3-1.3,6s.4,4.9,1.2,6.2c.8,1.3,1.8,1.9,3.1,1.9s1.8-.4,2.5-1.3c.7-.8,1.2-2.2,1.3-4h.1v.1h0Z" fill="#231f20"/><path d="M359.2,193.4v-28.9h2.6v10.4c.6-1,1.3-1.7,2.1-2.2.8-.5,1.6-.7,2.6-.7,1.6,0,2.9.6,3.9,1.7s1.4,3.3,1.4,6.4v13.3h-2.6v-13.3c0-1.8-.3-3.1-.9-3.9-.6-.8-1.4-1.2-2.4-1.2s-2.1.5-2.9,1.5-1.2,2.8-1.2,5.4v11.5h-2.6Z" fill="#231f20"/><path d="M374.8,182.9c0-3.6.7-6.3,2.1-8.2,1.4-1.8,3.1-2.8,5.2-2.8s3.8.9,5.2,2.8c1.4,1.8,2.1,4.5,2.1,8s-.7,6.6-2,8.4c-1.4,1.8-3.1,2.8-5.2,2.8s-3.8-.9-5.2-2.8c-1.4-1.8-2.1-4.6-2.1-8.2h-.1ZM377.4,182.9c0,2.7.4,4.7,1.3,6.1s2,2,3.3,2,2.3-.7,3.2-2,1.3-3.3,1.3-6-.4-4.7-1.3-6-2-2-3.3-2-2.3.7-3.2,2-1.3,3.3-1.3,6h0v-.1Z" fill="#231f20"/><path d="M391.3,182.9c0-3.6.7-6.3,2.1-8.2,1.4-1.8,3.1-2.8,5.2-2.8s3.8.9,5.2,2.8c1.4,1.8,2.1,4.5,2.1,8s-.7,6.6-2,8.4c-1.4,1.8-3.1,2.8-5.2,2.8s-3.8-.9-5.2-2.8c-1.4-1.8-2.1-4.6-2.1-8.2h-.1ZM394,182.9c0,2.7.4,4.7,1.3,6.1s2,2,3.3,2,2.3-.7,3.2-2,1.3-3.3,1.3-6-.4-4.7-1.3-6-2-2-3.3-2-2.3.7-3.2,2-1.3,3.3-1.3,6h0v-.1Z" fill="#231f20"/><path d="M408.8,193.4v-28.9h2.6v28.9h-2.6Z" fill="#231f20"/><path d="M439.4,183.2l2.8,1c-.6,3.2-1.7,5.7-3.3,7.3-1.6,1.6-3.5,2.4-5.7,2.4s-3.7-.5-5.1-1.6-2.6-2.8-3.4-5.2c-.9-2.4-1.3-5.2-1.3-8.4s.4-5.9,1.3-8.1,2.1-3.9,3.6-5,3.2-1.7,5.1-1.7,3.8.7,5.3,2.1,2.5,3.5,3.1,6.3l-2.8.9c-.9-4-2.9-6-5.7-6s-2.7.4-3.7,1.2-1.9,2.1-2.5,3.8-.9,3.9-.9,6.5c0,4,.6,6.9,1.9,8.9s2.9,3,5,3,2.9-.6,4-1.8,1.9-3.1,2.2-5.5h.1q0-.07,0,0v-.1Z" fill="#231f20"/><path d="M444.4,182.9c0-3.6.7-6.3,2.1-8.2,1.4-1.8,3.1-2.8,5.2-2.8s3.8.9,5.2,2.8c1.4,1.8,2.1,4.5,2.1,8s-.7,6.6-2,8.4c-1.4,1.8-3.1,2.8-5.2,2.8s-3.8-.9-5.2-2.8c-1.4-1.8-2.1-4.6-2.1-8.2h-.1ZM447.1,182.9c0,2.7.4,4.7,1.3,6.1s2,2,3.3,2,2.3-.7,3.2-2,1.3-3.3,1.3-6-.4-4.7-1.3-6-2-2-3.3-2-2.3.7-3.2,2-1.3,3.3-1.3,6h0v-.1Z" fill="#231f20"/><path d="M462,193.4v-21h2.4v3.2c.6-1.5,1.2-2.5,1.7-2.9.5-.5,1.1-.7,1.7-.7s1.8.4,2.7,1.1l-.9,3.3c-.7-.5-1.3-.8-1.9-.8s-1.1.2-1.5.7c-.5.4-.8,1-1,1.8-.3,1.4-.5,2.8-.5,4.3v11h-2.7Z" fill="#231f20"/><path d="M471.9,201.4v-29h2.4v2.7c.6-1.1,1.2-1.9,2-2.4s1.5-.8,2.5-.8,2.3.4,3.3,1.2,1.8,2,2.4,3.7c.6,1.6.9,3.6.9,5.9,0,3.6-.7,6.3-2,8.2s-2.9,2.9-4.7,2.9-1.6-.2-2.3-.7c-.7-.5-1.3-1.1-1.8-2v10.2h-2.7v.1h0ZM474.3,183c0,2.7.4,4.7,1.2,6,.8,1.3,1.8,1.9,3,1.9s2.1-.7,2.9-2,1.3-3.4,1.3-6.2-.4-4.8-1.2-6.1c-.8-1.3-1.8-2-3-2s-2,.7-2.9,2.1c-.9,1.4-1.3,3.5-1.3,6.2h0v.1Z" fill="#231f20"/><path d="M487.5,182.9c0-3.6.7-6.3,2.1-8.2,1.4-1.8,3.1-2.8,5.2-2.8s3.8.9,5.2,2.8c1.4,1.8,2.1,4.5,2.1,8s-.7,6.6-2,8.4c-1.4,1.8-3.1,2.8-5.2,2.8s-3.8-.9-5.2-2.8c-1.4-1.8-2.1-4.6-2.1-8.2h-.1ZM490.2,182.9c0,2.7.4,4.7,1.3,6.1s2,2,3.3,2,2.3-.7,3.2-2,1.3-3.3,1.3-6-.4-4.7-1.3-6-2-2-3.3-2-2.3.7-3.2,2-1.3,3.3-1.3,6h0v-.1Z" fill="#231f20"/><path d="M505.1,193.4v-21h2.4v3.2c.6-1.5,1.2-2.5,1.7-2.9.5-.5,1.1-.7,1.7-.7s1.8.4,2.7,1.1l-.9,3.3c-.7-.5-1.3-.8-1.9-.8s-1.1.2-1.5.7c-.5.4-.8,1-1,1.8-.3,1.4-.5,2.8-.5,4.3v11h-2.7Z" fill="#231f20"/><path d="M525.1,190.8c-.9,1-1.8,1.8-2.7,2.3s-1.9.8-2.9.8c-1.6,0-2.9-.5-3.9-1.6s-1.4-2.5-1.4-4.4.2-2.3.7-3.2,1.1-1.7,1.8-2.2c.8-.5,2-.9,3.6-1.2,2.1-.3,3.7-.8,4.7-1.2v-.9c0-1.4-.2-2.4-.7-3-.7-.8-1.7-1.3-3-1.3s-2.1.3-2.7.8c-.6.6-1,1.6-1.3,3.2l-2.6-.5c.4-2.2,1.1-3.9,2.2-4.9s2.7-1.5,4.8-1.5,2.9.3,3.8,1c.9.7,1.5,1.5,1.7,2.5s.4,2.5.4,4.4v4.7c0,3.3,0,5.4.2,6.3,0,.9.3,1.7.7,2.5h-2.7c-.3-.7-.5-1.6-.5-2.6h-.2,0ZM524.8,182.9c-1,.5-2.4,1-4.3,1.3-1.1.2-1.9.5-2.3.7-.4.3-.8.7-1,1.1-.2.5-.4,1.1-.4,1.7,0,1,.3,1.8.8,2.4s1.3.9,2.3.9,1.8-.3,2.5-.8c.8-.5,1.3-1.3,1.7-2.2s.6-2.2.6-3.9v-1.3h0v.1h.1Z" fill="#231f20"/><path d="M537.4,190.2l.4,3.1c-.7.2-1.4.3-2,.3-.9,0-1.6-.2-2.2-.6-.6-.4-.9-1-1.1-1.6-.2-.7-.3-2.1-.3-4.2v-12.1h-1.9v-2.8h1.9v-5.2l2.6-2.1v7.3h2.6v2.8h-2.6v12.3c0,1.1,0,1.9.2,2.2.2.5.6.7,1.3.7s.7,0,1.2-.1h-.1Z" fill="#231f20"/><path d="M539.9,168.5v-4.1h2.6v4.1h-2.6ZM539.9,193.4v-21h2.6v21h-2.6Z" fill="#231f20"/><path d="M545.5,182.9c0-3.6.7-6.3,2.1-8.2,1.4-1.8,3.1-2.8,5.2-2.8s3.8.9,5.2,2.8c1.4,1.8,2.1,4.5,2.1,8s-.7,6.6-2,8.4c-1.4,1.8-3.1,2.8-5.2,2.8s-3.8-.9-5.2-2.8c-1.4-1.8-2.1-4.6-2.1-8.2h-.1ZM548.2,182.9c0,2.7.4,4.7,1.3,6.1s2,2,3.3,2,2.3-.7,3.2-2,1.3-3.3,1.3-6-.4-4.7-1.3-6-2-2-3.3-2-2.3.7-3.2,2-1.3,3.3-1.3,6h0v-.1Z" fill="#231f20"/><path d="M563.1,193.4v-21h2.4v3c.6-1.2,1.3-2,2.1-2.6s1.8-.9,2.8-.9,1.6.2,2.3.5c.7.4,1.3.8,1.7,1.4.4.6.8,1.3,1,2.3.2.9.3,2.4.3,4.3v12.9h-2.6v-12.8c0-1.5,0-2.7-.4-3.4s-.6-1.3-1.1-1.6c-.5-.4-1.1-.6-1.8-.6-1.3,0-2.3.5-3,1.6-.7,1-1.1,2.8-1.1,5.4v11.5h-2.6Z" fill="#231f20"/></g></svg>